<svg width="40" height="34" viewBox="0 0 40 34" fill="none" xmlns="http://www.w3.org/2000/svg">
<path d="M0.749268 33.75L19.9993 0.5L39.2493 33.75H0.749268ZM6.78677 30.25H33.2118L19.9993 7.5L6.78677 30.25ZM19.9993 28.5C20.4951 28.5 20.911 28.332 21.247 27.996C21.5819 27.6612 21.7493 27.2458 21.7493 26.75C21.7493 26.2542 21.5819 25.8388 21.247 25.504C20.911 25.168 20.4951 25 19.9993 25C19.5034 25 19.0881 25.168 18.7533 25.504C18.4173 25.8388 18.2493 26.2542 18.2493 26.75C18.2493 27.2458 18.4173 27.6612 18.7533 27.996C19.0881 28.332 19.5034 28.5 19.9993 28.5ZM18.2493 23.25H21.7493V14.5H18.2493V23.25Z" fill="#FC1C1C"/>
</svg>
