<svg width="42" height="43" viewBox="0 0 42 43" fill="none" xmlns="http://www.w3.org/2000/svg">
<mask id="mask0_390_3135" style="mask-type:alpha" maskUnits="userSpaceOnUse" x="0" y="0" width="42" height="43">
<rect y="0.5" width="42" height="42" fill="#D9D9D9"/>
</mask>
<g mask="url(#mask0_390_3135)">
<path d="M33.0749 37.2499L23.4937 27.6687L27.1687 23.9937L36.7499 33.5749L33.0749 37.2499ZM8.92491 37.2499L5.24991 33.5749L17.3249 21.4999L14.3499 18.5249L13.1249 19.7499L10.8937 17.5187V21.1062L9.66866 22.3312L4.37491 17.0374L5.59991 15.8124H9.18741L6.99991 13.6249L13.2124 7.41244C13.7957 6.82911 14.4228 6.40619 15.0937 6.14369C15.7645 5.88119 16.4499 5.74994 17.1499 5.74994C17.8499 5.74994 18.5353 5.88119 19.2062 6.14369C19.877 6.40619 20.5041 6.82911 21.0874 7.41244L17.0624 11.4374L19.2499 13.6249L18.0249 14.8499L20.9999 17.8249L24.9374 13.8874C24.8207 13.5666 24.7262 13.2312 24.6539 12.8812C24.5804 12.5312 24.5437 12.1812 24.5437 11.8312C24.5437 10.1104 25.1346 8.65903 26.3164 7.47719C27.4971 6.29653 28.9478 5.70619 30.6687 5.70619C31.1062 5.70619 31.5221 5.74994 31.9164 5.83744C32.3096 5.92494 32.7103 6.05619 33.1187 6.23119L28.7874 10.5624L31.9374 13.7124L36.2687 9.38119C36.4728 9.78953 36.6117 10.1903 36.6852 10.5834C36.7575 10.9778 36.7937 11.3937 36.7937 11.8312C36.7937 13.552 36.2033 15.0028 35.0227 16.1834C33.8408 17.3653 32.3895 17.9562 30.6687 17.9562C30.3187 17.9562 29.9687 17.927 29.6187 17.8687C29.2687 17.8104 28.9332 17.7083 28.6124 17.5624L8.92491 37.2499Z" fill="#FFA755"/>
</g>
</svg>
