<svg width="28" height="36" viewBox="0 0 28 36" fill="none" xmlns="http://www.w3.org/2000/svg">
<path d="M14 17.7178C14.9625 17.7178 15.7867 17.3748 16.4727 16.6888C17.1576 16.0039 17.5 15.1803 17.5 14.2178C17.5 13.2553 17.1576 12.431 16.4727 11.745C15.7867 11.0602 14.9625 10.7178 14 10.7178C13.0375 10.7178 12.2138 11.0602 11.529 11.745C10.843 12.431 10.5 13.2553 10.5 14.2178C10.5 15.1803 10.843 16.0039 11.529 16.6888C12.2138 17.3748 13.0375 17.7178 14 17.7178ZM14 30.5803C17.5583 27.3136 20.1979 24.3456 21.9187 21.6763C23.6396 19.0081 24.5 16.6386 24.5 14.5678C24.5 11.3886 23.4862 8.78519 21.4585 6.75752C19.432 4.73102 16.9458 3.71777 14 3.71777C11.0542 3.71777 8.56742 4.73102 6.53975 6.75752C4.51325 8.78519 3.5 11.3886 3.5 14.5678C3.5 16.6386 4.36042 19.0081 6.08125 21.6763C7.80208 24.3456 10.4417 27.3136 14 30.5803ZM14 35.2178C9.30417 31.2219 5.79717 27.5102 3.479 24.0825C1.15967 20.656 0 17.4844 0 14.5678C0 10.1928 1.40758 6.70736 4.22275 4.11152C7.03675 1.51569 10.2958 0.217773 14 0.217773C17.7042 0.217773 20.9632 1.51569 23.7773 4.11152C26.5924 6.70736 28 10.1928 28 14.5678C28 17.4844 26.8409 20.656 24.5228 24.0825C22.2034 27.5102 18.6958 31.2219 14 35.2178Z" fill="#1C1B1F"/>
</svg>
