<svg width="786" height="785" viewBox="0 0 786 785" fill="none" xmlns="http://www.w3.org/2000/svg">
<path d="M237.34 723.816L223.101 728.202C222.197 728.48 221.222 728.088 220.763 727.261L212.878 713.052C212.6 712.552 212.122 712.195 211.563 712.071L180.81 705.229C180.094 705.07 179.535 704.526 179.255 703.848C178.107 701.068 175.404 697.732 171.146 700.715C165.073 704.971 165.073 697.676 171.146 694.636C177.219 691.596 164.466 675.183 155.357 680.654C148.591 684.718 146.536 677.567 146.277 672.63C146.241 671.948 146.596 671.313 147.173 670.945L165.632 659.186C166.054 658.918 166.36 658.501 166.489 658.018L188.082 577.562C188.127 577.393 188.15 577.219 188.15 577.044V556.638C190.781 533.132 197.016 485.876 200.903 484.904C205.761 483.688 205.761 488.551 212.441 498.278C219.121 508.005 221.55 513.476 221.55 516.515C221.55 519.555 223.372 532.929 228.23 531.713C233.089 530.497 224.587 504.357 221.55 498.278C218.514 492.199 197.866 473.961 193.008 470.921C188.15 467.882 193.615 464.842 197.259 460.587C200.005 457.38 203.684 448.169 205.456 443.215C205.652 442.665 205.592 442.059 205.298 441.555L197.737 428.579C197.435 428.06 197.381 427.433 197.592 426.87L200.903 418.032L197.103 419.934C196.45 420.261 195.671 420.206 195.071 419.791L163.027 397.628C162.775 397.454 162.567 397.224 162.417 396.957L145.61 366.787C145.254 366.148 145.275 365.367 145.664 364.749L154.344 350.948C154.911 350.046 154.671 348.857 153.798 348.246L149.405 345.167C149.324 345.111 149.24 345.06 149.152 345.016L143.095 341.984C141.924 341.399 141.623 339.865 142.484 338.88L144.539 336.529C144.857 336.164 145.033 335.697 145.033 335.213V330.061C145.033 328.956 145.928 328.061 147.033 328.061H156.76C157.036 328.061 157.308 328.121 157.557 328.238C159.43 329.113 161.14 326.767 159.735 325.251L158.987 324.445C158.608 324.037 158.077 323.805 157.52 323.805H144.647C144.117 323.805 143.608 324.016 143.232 324.392L138.135 329.494C137.538 330.093 136.628 330.25 135.863 329.888L126.544 325.469C125.953 325.188 125.536 324.636 125.428 323.99L124.554 318.74C124.448 318.104 124.656 317.455 125.112 316.998L131.065 311.039L129.709 305.607C129.449 304.566 128.414 303.916 127.363 304.133L112.398 307.233C111.906 307.335 111.393 307.248 110.962 306.989L108.799 305.689C107.422 304.862 107.532 302.833 108.99 302.159L111.64 300.934C112.642 300.471 113.08 299.284 112.618 298.281L111.013 294.801C110.43 293.536 108.765 293.24 107.782 294.225L102.917 299.095C102.317 299.695 101.404 299.851 100.639 299.485L48.1476 274.38C47.5883 274.112 47.1846 273.601 47.0548 272.994L45.7773 267.026C45.5799 266.104 44.7649 265.445 43.8216 265.445H35.9441C35.4133 265.445 34.9042 265.656 34.5291 266.031L29.0208 271.545C28.6457 271.921 28.1367 272.132 27.6059 272.132H20.7861C19.9161 272.132 19.1459 271.57 18.8811 270.741L14.6353 257.459C14.5255 257.115 14.3247 256.808 14.0543 256.569L7.16503 250.484C5.92551 249.389 6.4748 247.349 8.09642 247.024L24.3071 243.778C25.9597 243.447 26.4871 241.346 25.1867 240.274L19.0659 235.228C18.4808 234.746 17.6734 234.636 16.9807 234.944L14.4591 236.066C13.4553 236.512 12.2792 236.066 11.825 235.065L9.78816 230.58C9.67023 230.32 9.60922 230.038 9.60922 229.753V227.366C9.60922 226.836 9.81964 226.327 10.1943 225.952L10.5558 225.59C11.5564 224.589 13.2522 224.915 13.8094 226.217L13.9482 226.541C14.2632 227.277 14.9865 227.754 15.7868 227.754H23.6554C24.6181 227.754 25.3985 226.973 25.3985 226.011C25.3985 225.241 24.8939 224.563 24.1568 224.341L20.7505 223.318C19.9048 223.064 19.3257 222.286 19.3257 221.403V219.694C19.3257 218.488 18.2659 217.556 17.0695 217.711L3.3508 219.483C1.96905 219.661 0.832742 218.408 1.14571 217.05L3.93214 204.963C4.06611 204.382 4.45249 203.89 4.98584 203.624L25.5927 193.309C26.5153 192.847 27.6379 193.163 28.1843 194.039L29.376 195.947C29.8865 196.765 30.9075 197.102 31.8045 196.749L45.7375 191.27C46.6235 190.921 47.6323 191.246 48.1491 192.045L52.5289 198.821C53.2419 199.924 54.8063 200.052 55.6892 199.08L59.0223 195.41C59.6117 194.761 60.5551 194.571 61.3494 194.942L68.7204 198.386C68.9854 198.51 69.2744 198.574 69.5669 198.574H71.3737C72.4783 198.574 73.3737 197.678 73.3737 196.574V194.842C73.3737 194.499 73.462 194.161 73.6301 193.862L77.9989 186.087C78.4824 185.227 79.5213 184.848 80.4454 185.195L82.9367 186.13C83.4245 186.313 83.9646 186.298 84.4419 186.089L92.1624 182.708C92.9171 182.378 93.7974 182.544 94.3797 183.127L94.9102 183.658C95.4761 184.224 96.3253 184.399 97.0686 184.101L99.1725 183.258C100.486 182.732 101.916 183.7 101.916 185.115V186.704C101.916 187.292 102.175 187.85 102.623 188.23L109.481 194.039C109.698 194.223 109.874 194.451 109.996 194.708L120.265 216.351C120.818 217.517 122.315 217.862 123.322 217.055L141.02 202.882C141.891 202.184 143.164 202.335 143.849 203.216L150.505 211.783C150.884 212.271 151.467 212.556 152.085 212.556H155.179C156.283 212.556 157.179 211.66 157.179 210.556V207.953C157.179 207.076 157.751 206.3 158.59 206.042L170.379 202.411C171.665 202.015 172.968 202.976 172.968 204.322V210.389C172.968 211.557 173.964 212.476 175.128 212.383L188.15 211.34H195.695C197.527 211.34 198.395 209.081 197.034 207.854L189.418 200.993C188.997 200.614 188.757 200.074 188.757 199.507V163.178C188.757 162.868 188.685 162.562 188.546 162.285L173.179 131.517C173.04 131.239 172.968 130.933 172.968 130.623V121.084C172.968 120.87 173.002 120.656 173.07 120.452L174.609 115.832C175.013 114.618 176.439 114.091 177.536 114.75L189.921 122.189C190.345 122.443 190.847 122.532 191.333 122.437L210.544 118.698C211.602 118.492 212.633 119.161 212.875 120.212L214.025 125.199C214.174 125.845 213.993 126.522 213.542 127.008L207.36 133.673C206.769 134.31 206.657 135.256 207.083 136.013L215.757 151.45C216.475 152.728 218.277 152.825 219.128 151.632L222.543 146.847C223.039 146.152 223.922 145.848 224.741 146.092L267.67 158.868C268.086 158.992 268.531 158.977 268.938 158.826L302.882 146.205C304.86 145.469 304.498 142.569 302.4 142.342L290.817 141.088C289.549 140.951 288.732 139.678 289.135 138.468L294.144 123.426C294.322 122.89 294.719 122.454 295.237 122.227L363.654 92.1879L372.4 82.849C372.638 82.5949 372.938 82.4073 373.271 82.3048L377.338 81.0521C378.811 80.5983 379.239 78.7182 378.107 77.6719L374.567 74.4015C373.636 73.5413 373.73 72.043 374.761 71.3057L376.124 70.3313C376.679 69.9348 376.993 69.283 376.958 68.6021L374.659 23.7136C374.615 22.8554 375.124 22.0651 375.924 21.7503L426.93 1.6707C427.894 1.29109 428.988 1.71092 429.451 2.63801L436.207 16.1631C436.414 16.5786 436.471 17.0534 436.366 17.5061L434.972 23.5536C434.808 24.2659 435.046 25.011 435.592 25.497L449.921 38.2474C450.613 38.8637 451.639 38.9232 452.398 38.3911L462.163 31.5485C462.821 31.0875 463.691 31.0648 464.372 31.4909L467.558 33.4842C467.914 33.7075 468.192 34.0376 468.35 34.4276L475.6 52.293C475.851 52.9105 476.393 53.3627 477.045 53.4988L489.437 56.0832C490.141 56.23 490.712 56.7433 490.933 57.4277L495.234 70.7767C495.771 72.4425 498.037 72.664 498.887 71.1337L499.114 70.7244C499.466 70.089 500.136 69.6949 500.863 69.6949H504.796C505.404 69.6949 505.979 69.4184 506.358 68.9435L507.587 67.4067C507.966 66.9318 508.541 66.6553 509.149 66.6553H513.778C514.457 66.6553 515.09 66.9995 515.458 67.5696L521.03 76.19C521.353 76.6887 521.906 76.9899 522.5 76.9899C523.766 76.9899 524.613 78.2926 524.099 79.4496L520.815 86.8454C520.518 87.5153 520.611 88.2943 521.057 88.8756L525.7 94.9173C526.136 95.4852 526.236 96.2432 525.961 96.9044L524.232 101.057C523.773 102.161 524.379 103.419 525.529 103.748L527.62 104.346H539.16C539.555 104.346 539.941 104.229 540.27 104.01L552.209 96.0421C552.414 95.9055 552.591 95.7322 552.733 95.5311L556.748 89.838C557.811 88.3303 560.174 88.9434 560.371 90.7777L563.258 117.757C563.367 118.773 564.225 119.544 565.247 119.544H571.73C572.261 119.544 572.77 119.755 573.145 120.131L575.158 122.146C575.443 122.431 575.807 122.624 576.204 122.698L584.512 124.258C585.025 124.354 585.48 124.646 585.78 125.073L596.253 139.972C596.627 140.504 597.238 140.821 597.889 140.821H605.368C605.754 140.821 606.132 140.71 606.455 140.5L615.011 134.958C615.763 134.471 616.748 134.544 617.42 135.136L630.006 146.223C630.818 146.939 632.053 146.878 632.791 146.086L638.605 139.85C639.358 139.043 640.622 138.998 641.43 139.749L647.244 145.154C647.953 145.813 649.032 145.87 649.806 145.289L651.618 143.929C652.543 143.234 653.863 143.467 654.494 144.436L670.954 169.701C671.323 170.268 671.953 170.609 672.63 170.609H674.664C675.367 170.609 676.018 170.241 676.379 169.638L678.858 165.502C679.219 164.899 679.87 164.53 680.573 164.53H683.47C684 164.53 684.509 164.741 684.884 165.117L689.98 170.217C690.236 170.474 690.557 170.656 690.909 170.744L701.496 173.394C702.135 173.554 702.812 173.389 703.306 172.952L711.228 165.955C712.099 165.185 713.44 165.318 714.144 166.242L721.874 176.399C722.298 176.956 722.983 177.251 723.679 177.176L739.097 175.523C739.402 175.49 739.711 175.528 739.999 175.634L755.863 181.456C756.915 181.843 757.445 183.018 757.037 184.062L726.374 262.571C726.26 262.862 726.216 263.175 726.246 263.486L729.159 294.405C729.209 294.935 729.046 295.463 728.705 295.872L726.976 297.95C726.499 298.522 726.38 299.311 726.666 299.998L728.786 305.091C729.065 305.76 728.959 306.528 728.51 307.098L720.602 317.125C720.297 317.512 719.86 317.773 719.375 317.857L708.504 319.75C707.28 319.963 706.161 319.021 706.161 317.779V314.686L692.863 316.35C692.085 316.448 691.436 316.99 691.202 317.739L689.095 324.489C688.786 325.478 689.284 326.54 690.242 326.934L696.127 329.36C697.44 329.901 697.787 331.599 696.792 332.611L663.617 366.384C663.25 366.758 663.044 367.261 663.044 367.785V382.497C663.044 383.06 662.806 383.597 662.39 383.976L643.541 401.13C643.194 401.446 642.969 401.874 642.905 402.339L641.182 414.993L646.73 417.77C647.698 418.255 648.105 419.422 647.647 420.403L644.328 427.524C644.255 427.68 644.162 427.826 644.052 427.959L637.839 435.422C636.754 436.725 637.681 438.702 639.376 438.702H647.606C648.157 438.702 648.683 438.475 649.061 438.074L657.321 429.32C658.116 428.476 658.03 427.135 657.133 426.4L654.409 424.168C653.311 423.27 653.472 421.546 654.717 420.866L658.345 418.885C658.639 418.725 658.968 418.641 659.303 418.641H664.511C665.119 418.641 665.694 418.364 666.073 417.889L669.731 413.313C670.11 412.838 670.685 412.561 671.293 412.561H685.229C685.796 412.561 686.337 412.802 686.716 413.224L690.747 417.708C691.26 418.278 691.402 419.092 691.111 419.802L686.598 430.847C686.306 431.561 686.45 432.378 686.968 432.948L703.115 450.729C703.809 451.492 703.808 452.659 703.112 453.421L692.108 465.486C691.772 465.854 691.586 466.335 691.586 466.833V471.536C691.586 472.279 691.999 472.962 692.657 473.307L703.268 478.871C703.926 479.216 704.339 479.898 704.339 480.642V485.376C704.339 485.856 704.511 486.319 704.825 486.683L714.976 498.449C715.518 499.078 715.616 499.977 715.221 500.707L708.234 513.62C708.069 513.924 707.828 514.18 707.535 514.364L698.393 520.083C698.309 520.136 698.22 520.183 698.128 520.223L680.048 528.066L685.876 533.9C686.038 534.062 686.171 534.251 686.269 534.458L691.204 544.888C691.447 545.402 691.898 545.788 692.443 545.95L706.551 550.135C707.4 550.386 707.983 551.166 707.983 552.052V562.541C707.983 563.646 707.087 564.541 705.983 564.541H705.651C704.854 564.541 704.134 565.014 703.816 565.744L698.628 577.689C698.398 578.219 698.409 578.823 698.657 579.345L704.262 591.128C704.313 591.236 704.355 591.347 704.386 591.462L707.671 603.52C707.863 604.225 708.424 604.77 709.135 604.94L735.209 611.181C735.666 611.291 736.148 611.235 736.569 611.025L747.663 605.472C748.58 605.013 749.696 605.322 750.246 606.187L752.842 610.271C753.26 610.929 753.258 611.771 752.835 612.427L741.912 629.375C741.578 629.893 741.502 630.537 741.705 631.119L745.059 640.711C745.389 641.653 744.973 642.694 744.085 643.15L722.714 654.121C722.226 654.372 721.863 654.811 721.708 655.337L719.336 663.412C719.085 664.263 718.304 664.848 717.417 664.848H709.425C708.563 664.848 707.799 665.399 707.527 666.216L704.794 674.422C704.522 675.239 703.758 675.79 702.897 675.79H696.097C695.544 675.79 695.015 676.02 694.637 676.423L687.523 684.02C686.754 684.84 686.813 686.133 687.653 686.881L689.493 688.518C690.519 689.431 690.341 691.081 689.145 691.755L672.296 701.242C672.201 701.296 672.101 701.342 671.999 701.379L652.444 708.497C652.225 708.577 651.993 708.618 651.76 708.618H641.849C641.416 708.618 640.994 708.477 640.648 708.217L631.855 701.616C631.599 701.424 631.3 701.295 630.984 701.243L607.63 697.346C606.666 697.185 605.959 696.351 605.959 695.374V687.517C605.959 686.413 605.064 685.517 603.959 685.517H587.156C586.398 685.517 585.705 685.089 585.366 684.411L583.968 681.611C583.406 680.485 581.956 680.152 580.958 680.92L575.527 685.102C575.178 685.371 574.749 685.517 574.307 685.517H561.199C560.094 685.517 559.199 684.622 559.199 683.517V681.183C559.199 680.183 558.46 679.337 557.469 679.202L532.478 675.79L527.609 670.374C527.229 669.952 526.689 669.711 526.121 669.711H515.419C515.058 669.711 514.703 669.809 514.393 669.994L480.442 690.267C480.316 690.342 480.198 690.432 480.091 690.533L457.867 711.61C457.43 712.025 457.203 712.615 457.25 713.216L460.212 751.172L462.517 763.636C462.818 765.259 461.132 766.527 459.656 765.788L451.892 761.902C451.389 761.651 450.803 761.622 450.279 761.824L435.924 767.351C435.527 767.504 435.189 767.779 434.96 768.137L430.908 774.445C430.319 775.363 429.105 775.639 428.177 775.068L407.407 762.273C406.666 761.817 405.716 761.891 405.056 762.458L390.982 774.534C390.034 775.347 388.58 775.102 387.951 774.023L381.237 762.5C380.878 761.885 380.22 761.507 379.509 761.507H371.185C369.85 761.507 368.889 760.224 369.266 758.943L371.109 752.668C371.368 751.789 370.995 750.846 370.205 750.381L362.496 745.841C361.74 745.396 360.783 745.495 360.135 746.086L356.048 749.805C355.222 750.557 353.94 750.486 353.201 749.648L346.033 741.515C345.653 741.085 345.107 740.838 344.533 740.838H336.852C336.149 740.838 335.498 740.469 335.137 739.866L332.52 735.501C332.236 735.027 331.77 734.692 331.23 734.575L306.128 729.112C305.036 728.875 303.961 729.578 303.742 730.675L302.033 739.23C301.846 740.165 301.025 740.838 300.072 740.838H277.965C277.608 740.838 277.258 740.742 276.95 740.561L267.993 735.286C267.431 734.956 266.743 734.919 266.15 735.189L255.822 739.888C254.719 740.391 253.426 739.803 253.078 738.642L250.375 729.623C250.197 729.028 249.752 728.55 249.172 728.329L237.34 723.816Z" fill="#94D3F2"/>
<path d="M772.962 656.337L774.482 642.642C774.631 641.296 776.046 640.485 777.283 641.035L779.062 641.827C779.784 642.148 780.249 642.864 780.249 643.654V658.004C780.249 658.108 780.241 658.213 780.225 658.316L778.561 668.862C778.476 669.404 778.616 669.958 778.951 670.393L784.086 677.075C784.354 677.425 784.5 677.853 784.5 678.294V692.204V721.849C784.5 722.333 784.324 722.801 784.006 723.166L772.334 736.518C771.961 736.946 771.786 737.512 771.855 738.076L774.697 761.402C774.753 761.863 774.647 762.329 774.397 762.72L761.406 783.076C761.038 783.652 760.403 784 759.72 784H757.35C756.246 784 755.35 783.105 755.35 782V779.267C755.35 778.453 754.858 777.72 754.104 777.414L736.525 770.265C736.13 770.104 735.797 769.822 735.574 769.46L732.25 764.052C731.618 763.025 732.033 761.676 733.132 761.181L739.157 758.467C740.728 757.759 740.728 755.528 739.157 754.82L731.059 751.172L727.841 749.239C726.547 748.462 726.547 746.587 727.841 745.81L733.367 742.491C733.833 742.211 734.164 741.755 734.286 741.226L735.246 737.065C735.566 735.677 734.373 734.408 732.968 734.643L725.445 735.898C725.143 735.948 724.834 735.929 724.541 735.841L722.213 735.141C720.742 734.7 720.297 732.835 721.41 731.777L729.045 724.515C730.036 723.574 729.811 721.939 728.604 721.299L721.627 717.602C721.066 717.304 720.68 716.758 720.586 716.131L719.148 706.535C719.011 705.618 719.522 704.727 720.383 704.382L724.284 702.82C725.818 702.206 725.987 700.1 724.57 699.249L721.377 697.331C720.183 696.614 720.069 694.926 721.156 694.056L727.273 689.157C727.747 688.778 728.023 688.203 728.023 687.596V677.026C728.023 676.269 728.451 675.576 729.128 675.237L757.492 661.04C758.055 660.758 758.719 660.758 759.282 661.04L770.066 666.438C771.396 667.104 772.962 666.137 772.962 664.65V656.337Z" fill="#94D3F2"/>
<path d="M237.34 723.816L223.101 728.202C222.197 728.48 221.222 728.088 220.763 727.261L212.878 713.052C212.6 712.552 212.122 712.195 211.563 712.071L180.81 705.229C180.094 705.07 179.535 704.526 179.255 703.848C178.107 701.068 175.404 697.732 171.146 700.715C165.073 704.971 165.073 697.676 171.146 694.636C177.219 691.596 164.466 675.183 155.357 680.654C148.591 684.718 146.536 677.567 146.277 672.63C146.241 671.948 146.596 671.313 147.173 670.945L165.632 659.186C166.054 658.918 166.36 658.501 166.489 658.018L188.082 577.562C188.127 577.393 188.15 577.219 188.15 577.044V556.638C190.781 533.132 197.016 485.876 200.903 484.904C205.761 483.688 205.761 488.551 212.441 498.278C219.121 508.005 221.55 513.476 221.55 516.515C221.55 519.555 223.372 532.929 228.23 531.713C233.089 530.498 224.587 504.357 221.55 498.278C218.514 492.199 197.866 473.961 193.008 470.921C188.15 467.882 193.615 464.842 197.259 460.587C200.005 457.38 203.684 448.169 205.456 443.215C205.652 442.665 205.592 442.059 205.298 441.555L197.737 428.579C197.435 428.06 197.381 427.433 197.592 426.87L200.903 418.032M237.34 723.816L262.387 681.429C262.679 680.936 262.745 680.342 262.568 679.797L256.557 661.196C256.318 660.457 255.673 659.923 254.902 659.826L244.799 658.562C243.325 658.378 242.559 656.706 243.383 655.469L249.826 645.795C250.001 645.532 250.111 645.23 250.148 644.916L251.796 630.618C251.87 629.973 252.254 629.403 252.824 629.092L257.741 626.407C258.28 626.113 258.924 626.082 259.488 626.324L265.566 628.932C266.453 629.312 267.485 629.006 268.019 628.203L269.212 626.411C269.417 626.104 269.703 625.859 270.038 625.704L276.661 622.644C277.147 622.42 277.702 622.399 278.203 622.587L281.604 623.864C282.04 624.028 282.519 624.034 282.959 623.882L299.312 618.238C299.688 618.108 300.095 618.093 300.48 618.196L307.884 620.172C308.574 620.356 309.31 620.159 309.815 619.653L323.738 605.716C324.361 605.091 324.502 604.132 324.084 603.355L321.087 597.783C320.747 597.151 320.772 596.385 321.152 595.776L322.482 593.646C323.079 592.689 324.35 592.416 325.288 593.042L326.713 593.993C327.042 594.212 327.428 594.329 327.823 594.329H329.838C331.223 594.329 332.189 592.956 331.72 591.652L327.62 580.25C327.372 579.56 327.52 578.791 328.007 578.243L356.468 546.264C356.794 545.898 356.974 545.425 356.974 544.935V539.185C356.974 538.08 357.869 537.185 358.974 537.185H367.832C368.273 537.185 368.702 537.331 369.052 537.6L375.768 542.772C376.178 543.088 376.695 543.232 377.209 543.175L398.269 540.832M237.34 723.816L249.172 728.329C249.752 728.55 250.197 729.028 250.375 729.623L253.078 738.642C253.426 739.803 254.719 740.391 255.822 739.889L266.15 735.189C266.743 734.919 267.431 734.956 267.993 735.286L276.95 740.561C277.258 740.742 277.608 740.838 277.965 740.838H300.072C301.025 740.838 301.846 740.165 302.033 739.23L303.742 730.675C303.961 729.578 305.036 728.875 306.128 729.112L331.23 734.575C331.77 734.692 332.236 735.027 332.52 735.501L335.137 739.866C335.498 740.469 336.149 740.838 336.852 740.838H344.533C345.107 740.838 345.653 741.085 346.033 741.515L353.201 749.648C353.94 750.486 355.222 750.557 356.048 749.805L360.135 746.086C360.783 745.495 361.74 745.396 362.495 745.841L370.205 750.381C370.995 750.846 371.368 751.789 371.109 752.668L369.266 758.943C368.889 760.224 369.85 761.507 371.185 761.507H379.509C380.22 761.507 380.878 761.885 381.237 762.5L387.951 774.023C388.58 775.102 390.034 775.347 390.982 774.534L405.056 762.458C405.716 761.891 406.666 761.817 407.407 762.273L428.177 775.068C429.105 775.639 430.319 775.363 430.908 774.445L434.96 768.137C435.189 767.779 435.527 767.504 435.924 767.351L450.279 761.824C450.803 761.622 451.389 761.65 451.892 761.902L459.656 765.788C461.132 766.527 462.818 765.259 462.517 763.636L460.212 751.172L457.25 713.216C457.203 712.615 457.43 712.025 457.867 711.61L480.091 690.533C480.198 690.432 480.316 690.342 480.442 690.267L514.393 669.994C514.703 669.809 515.058 669.711 515.419 669.711H526.121C526.689 669.711 527.229 669.952 527.609 670.374L532.478 675.79M200.903 418.032C202.725 416.411 207.583 413.291 212.441 413.777C216.899 414.223 223.744 416.41 227.344 417.707C227.908 417.91 228.531 417.858 229.05 417.558L235.977 413.543C237.019 412.939 236.59 411.346 235.386 411.346V411.346C234.774 411.346 234.264 410.877 234.212 410.267L231.31 375.99C231.282 375.654 231.169 375.331 230.982 375.051L221.519 360.842C220.574 359.422 221.724 357.547 223.418 357.747L238.426 359.514C239.237 359.61 240.025 359.202 240.416 358.485L242.844 354.028C243.194 353.385 243.868 352.985 244.6 352.985H265.578M200.903 418.032L197.103 419.934C196.45 420.261 195.671 420.206 195.071 419.791L163.027 397.628C162.775 397.454 162.567 397.224 162.417 396.957L145.61 366.787C145.254 366.148 145.275 365.367 145.664 364.749L154.344 350.948C154.911 350.046 154.671 348.857 153.798 348.246L149.405 345.167C149.324 345.111 149.24 345.06 149.152 345.016L143.095 341.984C141.924 341.399 141.623 339.865 142.484 338.88L144.539 336.529C144.857 336.164 145.033 335.697 145.033 335.213V330.061C145.033 328.956 145.928 328.061 147.033 328.061H156.76C157.036 328.061 157.308 328.121 157.557 328.238V328.238C159.43 329.113 161.14 326.767 159.735 325.251L158.987 324.445C158.608 324.037 158.077 323.805 157.52 323.805H144.647C144.117 323.805 143.608 324.016 143.232 324.392L138.135 329.494C137.538 330.093 136.628 330.25 135.863 329.888L126.544 325.469C125.953 325.188 125.536 324.636 125.428 323.99L124.554 318.74C124.448 318.104 124.656 317.455 125.112 316.998L131.065 311.039M411.022 414.993L382.415 411.486C381.704 411.399 381 411.699 380.571 412.272L378.357 415.227C377.906 415.83 377.155 416.128 376.413 415.998L365.192 414.045C364.288 413.887 363.393 414.365 363.021 415.204L361.863 417.811C361.489 418.654 360.585 419.132 359.677 418.967L354.753 418.07C354.615 418.045 354.479 418.005 354.349 417.952L345.459 414.287C344.71 413.978 344.221 413.248 344.221 412.438V408.068C344.221 407.451 343.937 406.868 343.45 406.49L328.596 394.924C328.109 394.545 327.825 393.963 327.825 393.346V386.317C327.825 385.986 327.743 385.66 327.586 385.369L315.803 363.463C315.372 362.662 314.455 362.253 313.572 362.467L299.068 365.971C298.135 366.197 297.174 365.728 296.777 364.854L294.574 360.002C294.475 359.784 294.337 359.585 294.168 359.416L288.33 353.572C287.955 353.196 287.446 352.985 286.915 352.985H265.578M411.022 414.993L415.099 421.989C415.214 422.187 415.363 422.364 415.538 422.511L426.259 431.549C426.616 431.85 426.856 432.266 426.939 432.726L430.843 454.501C430.977 455.25 430.676 456.01 430.064 456.462L418.689 464.879C417.806 465.532 417.615 466.774 418.26 467.662L421.63 472.301C421.842 472.592 421.971 472.934 422.004 473.292L424.749 502.97C424.87 504.282 423.712 505.351 422.414 505.125L413.991 503.658C412.581 503.413 411.378 504.684 411.699 506.078L412.638 510.152C412.769 510.719 412.646 511.314 412.303 511.783L406.254 520.039C406.194 520.122 406.14 520.209 406.093 520.299L398.494 534.928C398.346 535.212 398.269 535.529 398.269 535.85V540.832M411.022 414.993L414.876 407.828C415.13 407.356 415.563 407.006 416.077 406.855L428.408 403.255C429.261 403.006 429.848 402.224 429.848 401.335V395.65C429.848 394.846 430.329 394.12 431.069 393.808L457.175 382.773M398.269 540.832L402.979 556.155C403.076 556.472 403.093 556.809 403.028 557.134L400.833 568.124C400.746 568.56 400.806 569.012 401.005 569.41L402.071 571.546C402.624 572.652 404.038 572.997 405.038 572.269L409.144 569.279C409.569 568.97 410.099 568.84 410.619 568.918L420.587 570.415C421.409 570.539 422.222 570.14 422.629 569.415L434.535 548.168C435.211 546.962 436.876 546.789 437.786 547.829L439.574 549.875C439.954 550.31 440.503 550.559 441.08 550.559H445.027C445.775 550.559 446.46 550.976 446.803 551.641L453.448 564.501C454.217 565.989 456.365 565.929 457.05 564.4L463.013 551.085C463.167 550.741 463.414 550.448 463.728 550.239L475.59 542.323C476.703 541.58 478.218 542.119 478.612 543.399L481.834 553.882C482.244 555.216 483.86 555.73 484.966 554.879L489.337 551.513C490.065 550.953 491.081 550.96 491.801 551.531L507.795 564.23C508.052 564.434 508.255 564.699 508.386 565.001L521.948 596.284C522.083 596.597 522.297 596.87 522.567 597.077L531.086 603.598C531.883 604.208 533.008 604.133 533.717 603.424L539.423 597.712C539.997 597.137 540.863 596.967 541.612 597.281L559.199 604.664M131.065 311.039L140.029 307.674C140.512 307.493 141.047 307.505 141.521 307.708L146.84 309.99C148.063 310.515 149.448 309.721 149.613 308.4L150.992 297.357C151.064 296.78 151.383 296.263 151.867 295.941L159.643 290.751C160.014 290.504 160.456 290.387 160.901 290.42L175.729 291.52C176.291 291.562 176.845 291.364 177.253 290.977L187.112 281.627C187.733 281.039 188.659 280.91 189.417 281.307L200.11 286.914C200.614 287.179 201.208 287.215 201.741 287.015L204.464 285.993C205.244 285.7 205.761 284.954 205.761 284.121V282.33C205.761 282.02 205.833 281.714 205.972 281.437L211.889 269.591C212.227 268.913 212.92 268.484 213.678 268.484H213.916C215.084 268.484 216.004 267.487 215.91 266.323L214.302 246.474C214.276 246.157 214.327 245.838 214.449 245.544L217.19 238.96C217.262 238.785 217.31 238.601 217.331 238.412L219.121 222.283M131.065 311.039L129.709 305.607C129.449 304.566 128.414 303.916 127.363 304.133L112.398 307.233C111.906 307.335 111.393 307.248 110.962 306.989L108.799 305.689C107.422 304.862 107.532 302.833 108.99 302.159L111.64 300.934C112.642 300.471 113.08 299.284 112.618 298.281L111.013 294.801C110.43 293.536 108.765 293.24 107.782 294.225L102.917 299.095C102.317 299.695 101.404 299.851 100.639 299.485L48.1476 274.38C47.5883 274.112 47.1846 273.601 47.0548 272.994L45.7773 267.026C45.5799 266.104 44.7649 265.445 43.8216 265.445H35.9441C35.4133 265.445 34.9042 265.656 34.5291 266.031L29.0208 271.545C28.6457 271.921 28.1367 272.132 27.6059 272.132H20.7861C19.9161 272.132 19.1459 271.57 18.8811 270.741L14.6353 257.459C14.5255 257.115 14.3247 256.808 14.0543 256.569L7.16503 250.484C5.92551 249.389 6.4748 247.349 8.09642 247.024L24.3071 243.778C25.9597 243.447 26.4871 241.346 25.1867 240.274L19.0659 235.228C18.4808 234.746 17.6734 234.636 16.9807 234.944L14.4591 236.066C13.4553 236.512 12.2792 236.066 11.825 235.065L9.78816 230.58C9.67023 230.32 9.60922 230.038 9.60922 229.753V227.366C9.60922 226.836 9.81964 226.327 10.1943 225.952L10.5558 225.59C11.5564 224.589 13.2522 224.915 13.8094 226.217L13.9482 226.541C14.2632 227.277 14.9865 227.754 15.7868 227.754H23.6554C24.6181 227.754 25.3985 226.973 25.3985 226.011V226.011C25.3985 225.241 24.8939 224.563 24.1568 224.341L20.7505 223.318C19.9048 223.064 19.3257 222.286 19.3257 221.403V219.694C19.3257 218.488 18.2659 217.556 17.0695 217.711L3.3508 219.483C1.96905 219.661 0.832742 218.408 1.14571 217.05L3.93214 204.963C4.06611 204.382 4.45249 203.89 4.98584 203.624L25.5927 193.309C26.5153 192.847 27.6379 193.163 28.1843 194.039L29.376 195.947C29.8865 196.765 30.9075 197.102 31.8045 196.749L45.7375 191.27C46.6235 190.921 47.6323 191.246 48.1491 192.045L52.5289 198.821C53.2419 199.924 54.8063 200.052 55.6892 199.08L59.0223 195.41C59.6117 194.761 60.5551 194.571 61.3494 194.942L68.7204 198.386C68.9854 198.51 69.2744 198.574 69.5669 198.574H71.3737C72.4783 198.574 73.3737 197.678 73.3737 196.574V194.842C73.3737 194.499 73.462 194.161 73.6301 193.862L77.9989 186.087C78.4824 185.227 79.5213 184.848 80.4454 185.195L82.9367 186.13C83.4245 186.313 83.9646 186.298 84.4419 186.089L92.1624 182.708C92.9171 182.378 93.7974 182.544 94.3797 183.127L94.9102 183.658C95.4761 184.224 96.3253 184.399 97.0686 184.101L99.1725 183.258C100.486 182.732 101.916 183.7 101.916 185.115V186.704C101.916 187.292 102.175 187.85 102.623 188.23L109.481 194.039C109.698 194.223 109.874 194.451 109.996 194.708L120.265 216.351C120.818 217.517 122.315 217.862 123.322 217.055L141.02 202.882C141.891 202.184 143.164 202.335 143.849 203.216L150.505 211.783C150.884 212.271 151.467 212.556 152.085 212.556H155.179C156.283 212.556 157.179 211.66 157.179 210.556V207.953C157.179 207.076 157.751 206.3 158.59 206.042L170.379 202.411C171.665 202.015 172.968 202.976 172.968 204.322V210.389C172.968 211.557 173.964 212.476 175.128 212.383L188.15 211.34M219.121 222.283L232.033 229.333C232.327 229.494 232.657 229.578 232.992 229.578H244.762C245.072 229.578 245.379 229.505 245.657 229.366L253.314 225.534C253.592 225.395 253.898 225.322 254.209 225.322H257.944C258.367 225.322 258.779 225.188 259.121 224.939L264.291 221.175C264.895 220.735 265.694 220.669 266.363 221.004L270.375 223.012C270.981 223.315 271.393 223.905 271.467 224.579L271.841 227.944C271.912 228.588 272.291 229.157 272.857 229.471L276.645 231.578C277.124 231.844 277.42 232.349 277.42 232.896V232.896C277.42 233.942 278.46 234.67 279.443 234.312L296.204 228.211C296.965 227.934 297.817 228.143 298.363 228.74L303.616 234.476C303.953 234.844 304.141 235.326 304.141 235.826V244.732C304.141 245.501 304.583 246.203 305.277 246.536L324.788 255.877M219.121 222.283L207.258 218.89C206.694 218.728 206.087 218.823 205.598 219.149L197.323 224.671C196.322 225.34 194.962 224.978 194.424 223.901L188.15 211.34M265.578 352.985L283.714 330.366C283.966 330.052 284.117 329.67 284.148 329.268L285.262 314.771C285.296 314.322 285.481 313.899 285.785 313.568L291.668 307.189C292.23 306.579 293.111 306.379 293.882 306.688L297.325 308.067C298.13 308.389 299.051 308.156 299.605 307.489L301.112 305.68C301.492 305.224 302.055 304.96 302.649 304.96H308.075C308.661 304.96 309.218 304.702 309.598 304.256L322.489 289.106C322.797 288.744 322.966 288.285 322.966 287.81V283.702C322.966 282.945 323.394 282.253 324.071 281.914L326.626 280.635C327.351 280.272 327.785 279.507 327.726 278.699L326.689 264.689C326.64 264.022 326.927 263.374 327.455 262.963L329.525 261.352C330.697 260.439 330.5 258.611 329.16 257.97L324.788 255.877M188.15 211.34H195.695C197.527 211.34 198.395 209.081 197.034 207.854L189.418 200.993C188.997 200.614 188.757 200.074 188.757 199.507V163.178C188.757 162.868 188.685 162.562 188.546 162.285L173.179 131.517C173.04 131.239 172.968 130.933 172.968 130.623V121.084C172.968 120.87 173.002 120.656 173.07 120.452L174.609 115.832C175.013 114.618 176.439 114.091 177.536 114.75L189.921 122.189C190.345 122.443 190.847 122.532 191.333 122.437L210.544 118.698C211.602 118.492 212.633 119.161 212.875 120.212L214.025 125.199C214.174 125.845 213.993 126.522 213.542 127.008L207.36 133.673C206.769 134.31 206.657 135.256 207.082 136.013L215.757 151.45C216.475 152.728 218.277 152.825 219.128 151.632L222.543 146.847C223.039 146.152 223.922 145.848 224.741 146.092L267.67 158.868C268.086 158.992 268.531 158.977 268.938 158.826L302.882 146.205C304.86 145.469 304.498 142.569 302.4 142.342L290.817 141.088C289.549 140.951 288.732 139.678 289.135 138.468L294.144 123.426C294.322 122.89 294.719 122.454 295.237 122.227L363.654 92.1879M363.654 92.1879L372.4 82.849C372.638 82.5949 372.938 82.4073 373.271 82.3048L377.338 81.0521C378.811 80.5983 379.239 78.7182 378.107 77.6718L374.567 74.4015C373.636 73.5413 373.73 72.043 374.761 71.3057L376.124 70.3313C376.679 69.9348 376.993 69.283 376.958 68.6021L374.659 23.7136C374.615 22.8554 375.124 22.0651 375.924 21.7503L426.93 1.6707C427.894 1.29109 428.988 1.71092 429.451 2.63801L436.207 16.1631C436.414 16.5786 436.471 17.0534 436.366 17.5061L434.972 23.5536C434.808 24.2659 435.046 25.011 435.592 25.497L449.921 38.2474C450.613 38.8637 451.639 38.9232 452.398 38.3911L462.163 31.5485C462.821 31.0875 463.691 31.0648 464.372 31.4909L467.558 33.4842C467.914 33.7075 468.192 34.0376 468.35 34.4276L475.6 52.293C475.851 52.9105 476.393 53.3627 477.045 53.4988L489.437 56.0832C490.141 56.23 490.712 56.7433 490.933 57.4277L495.234 70.7767C495.771 72.4425 498.037 72.664 498.887 71.1337L499.114 70.7244C499.466 70.089 500.136 69.6949 500.863 69.6949H504.796C505.404 69.6949 505.979 69.4184 506.358 68.9435L507.587 67.4067C507.966 66.9318 508.541 66.6553 509.149 66.6553H513.778C514.457 66.6553 515.09 66.9995 515.458 67.5696L521.03 76.19C521.353 76.6887 521.906 76.9899 522.5 76.9899V76.9899C523.766 76.9899 524.613 78.2926 524.099 79.4496L520.815 86.8454C520.518 87.5153 520.611 88.2943 521.057 88.8756L525.7 94.9173C526.136 95.4852 526.236 96.2432 525.961 96.9044L524.232 101.057C523.773 102.161 524.379 103.419 525.529 103.748L527.62 104.346M363.654 92.1879L382.335 103.876C382.814 104.175 383.144 104.664 383.243 105.22L385.94 120.341C386.055 120.985 385.848 121.644 385.386 122.106L381.628 125.868C381.043 126.453 380.879 127.338 381.215 128.093L382.915 131.923C383.029 132.179 383.087 132.455 383.087 132.735V144.469V149.726C383.087 149.868 383.102 150.011 383.133 150.15L385.743 162.169C385.959 163.166 385.39 164.167 384.421 164.49L383.391 164.834L380.658 165.746M527.62 104.346V121.756C527.62 122.286 527.41 122.795 527.035 123.17L518.377 131.836C518.07 132.144 517.871 132.544 517.811 132.975L515.106 152.471C514.969 153.459 514.124 154.196 513.125 154.196H508.512C508.297 154.196 508.083 154.23 507.879 154.298L495.262 158.508C494.316 158.824 493.747 159.789 493.929 160.769L496.445 174.372C496.572 175.056 496.334 175.757 495.817 176.222L491.495 180.116C490.932 180.623 490.704 181.406 490.907 182.136L493.267 190.643C493.477 191.4 493.225 192.21 492.621 192.713L482.681 201.005M527.62 104.346H539.16C539.555 104.346 539.941 104.229 540.27 104.01L552.209 96.0421C552.414 95.9055 552.591 95.7322 552.733 95.5311L556.748 89.838C557.811 88.3303 560.174 88.9434 560.371 90.7777L563.258 117.757C563.367 118.773 564.225 119.544 565.247 119.544H571.73C572.261 119.544 572.77 119.755 573.145 120.131L575.158 122.146C575.443 122.431 575.807 122.624 576.204 122.698L584.512 124.258C585.025 124.354 585.48 124.646 585.78 125.073L596.253 139.972C596.627 140.504 597.238 140.821 597.889 140.821H605.368C605.754 140.821 606.132 140.71 606.455 140.5L615.011 134.958C615.763 134.471 616.748 134.544 617.42 135.136L630.006 146.223C630.818 146.939 632.053 146.878 632.791 146.086L638.605 139.85C639.358 139.043 640.622 138.998 641.43 139.749L647.244 145.154C647.953 145.813 649.032 145.87 649.806 145.289L651.618 143.929C652.543 143.234 653.863 143.467 654.494 144.436L670.954 169.701C671.323 170.268 671.953 170.609 672.63 170.609H674.664C675.367 170.609 676.018 170.241 676.379 169.638L678.858 165.502C679.219 164.899 679.87 164.53 680.573 164.53H683.47C684 164.53 684.509 164.741 684.884 165.117L689.98 170.217C690.236 170.474 690.557 170.656 690.909 170.744L701.496 173.394C702.135 173.554 702.812 173.389 703.306 172.952L711.228 165.955C712.099 165.185 713.44 165.318 714.144 166.242L721.874 176.399C722.298 176.956 722.983 177.251 723.679 177.176L739.097 175.523C739.402 175.49 739.711 175.528 739.999 175.634L755.863 181.456C756.915 181.843 757.445 183.018 757.037 184.062L726.374 262.571C726.26 262.862 726.216 263.175 726.246 263.486L729.159 294.405C729.209 294.935 729.046 295.463 728.705 295.872L726.976 297.95C726.499 298.522 726.38 299.311 726.666 299.998L728.786 305.091C729.065 305.76 728.959 306.528 728.51 307.098L720.602 317.125C720.297 317.512 719.86 317.773 719.375 317.857L708.504 319.75C707.28 319.963 706.161 319.021 706.161 317.779V314.686M482.681 201.005L468.524 189.786C468.25 189.569 468.038 189.284 467.909 188.96L464.009 179.201C463.592 178.157 462.397 177.662 461.363 178.105L455.218 180.742C454.909 180.874 454.571 180.927 454.235 180.894L430.059 178.533C429.919 178.519 429.78 178.491 429.645 178.448L401.896 169.582C401.511 169.459 401.099 169.456 400.712 169.572L390.207 172.727C389.555 172.923 388.847 172.773 388.33 172.329L380.658 165.746M482.681 201.005L480.427 219.056C480.322 219.897 480.759 220.712 481.517 221.092L482.733 221.701C483.923 222.296 484.21 223.867 483.308 224.845L478.513 230.045C478.08 230.515 477.897 231.165 478.023 231.792L480.252 242.952M380.658 165.746L371.837 178.108C371.648 178.374 371.396 178.589 371.104 178.735L365.679 181.451C364.848 181.866 364.413 182.799 364.628 183.702L367.298 194.926M367.298 194.926L364.594 202.504C364.385 203.092 363.912 203.548 363.318 203.738L351.905 207.373C351.277 207.573 350.59 207.45 350.07 207.045L346.301 204.111C345.762 203.691 345.046 203.575 344.403 203.804L328.597 209.418C327.517 209.802 326.98 211.013 327.42 212.071L335.262 230.911C335.544 231.588 335.432 232.365 334.972 232.935L323.574 247.062C323.19 247.538 323.045 248.163 323.18 248.759L324.788 255.877M367.298 194.926L374.207 202.995C374.454 203.284 374.614 203.637 374.667 204.013L376.936 219.912C376.987 220.27 377.134 220.607 377.362 220.888L394.787 242.401C395.075 242.758 395.233 243.202 395.233 243.66V249.822C395.233 251.21 396.612 252.176 397.917 251.702L408.262 247.936C408.481 247.856 408.712 247.815 408.946 247.815H418.636C419.201 247.815 419.74 248.055 420.12 248.474L426.295 255.306C426.627 255.673 426.811 256.151 426.811 256.647V261.293C426.811 262.518 427.902 263.455 429.113 263.271L454.746 259.366M454.746 259.366L462.802 275.494C463.083 276.056 463.083 276.718 462.802 277.281L460.333 282.224C460.253 282.385 460.151 282.534 460.031 282.668L455.259 287.976C454.929 288.343 454.746 288.819 454.746 289.313V296.505C454.746 297.222 454.362 297.884 453.739 298.241L443.798 303.928C442.813 304.491 442.493 305.76 443.094 306.723L450.799 319.064C450.997 319.381 451.103 319.748 451.103 320.123V337.924C451.103 338.234 451.175 338.54 451.313 338.817L456.965 350.132C457.103 350.409 457.175 350.715 457.175 351.025V382.773M454.746 259.366L456.915 247.426C457.07 246.571 457.76 245.914 458.621 245.801L480.252 242.952M457.175 382.773L467.565 390.862C467.916 391.136 468.348 391.284 468.793 391.284H477.249C477.624 391.284 477.992 391.39 478.31 391.589L481.485 393.575C482.202 394.024 483.124 393.973 483.788 393.447L494.806 384.715C495.95 383.808 497.648 384.393 497.992 385.812L501.976 402.263C502.066 402.636 502.262 402.975 502.54 403.24L513.777 413.953C514.422 414.569 514.582 415.538 514.169 416.328L508.712 426.756C508.386 427.379 508.411 428.126 508.777 428.726L514.092 437.432C514.552 438.186 515.452 438.549 516.306 438.325L538.88 432.406C539.76 432.176 540.373 431.381 540.373 430.472V425.383C540.373 423.931 541.871 422.963 543.194 423.559L552.127 427.583C552.385 427.699 552.665 427.759 552.948 427.759H557.83C558.655 427.759 559.395 428.266 559.694 429.035L561.17 432.834C561.877 434.653 564.502 434.487 564.975 432.595L570.836 409.124C571.113 408.016 572.259 407.365 573.352 407.693L576.715 408.703C577.168 408.839 577.655 408.81 578.089 408.621L589.892 403.484C590.761 403.106 591.777 403.39 592.324 404.164L606.871 424.753C607.786 426.048 609.773 425.813 610.362 424.341L611.301 421.991C611.884 420.532 613.843 420.284 614.771 421.551L618.254 426.305C618.86 427.132 619.992 427.367 620.876 426.85L641.182 414.993M480.252 242.952L489.848 250.863C490.309 251.243 490.576 251.809 490.576 252.406V258.268C490.576 258.952 490.925 259.588 491.501 259.955L496.985 263.449C497.165 263.563 497.325 263.705 497.459 263.87L508.187 276.995L514.143 284.583C514.59 285.153 515.311 285.437 516.026 285.324L545.272 280.732C545.642 280.674 545.989 280.513 546.272 280.267L553.397 274.085C554.247 273.348 555.537 273.457 556.252 274.325L562.85 282.345C563.229 282.807 563.796 283.075 564.394 283.075H568.657C569.997 283.075 570.957 284.366 570.573 285.649L568.085 293.949C567.853 294.726 568.112 295.566 568.742 296.077L579.903 305.121C580.259 305.41 580.704 305.568 581.162 305.568H586.092C586.745 305.568 587.356 305.886 587.731 306.421L590.106 309.818C590.788 310.794 592.167 310.961 593.063 310.177L600.76 303.435C600.984 303.238 601.25 303.094 601.538 303.013L614.823 299.29C615.686 299.048 616.283 298.261 616.283 297.364V291.273C616.283 290.699 616.53 290.152 616.961 289.772L631.27 277.167C631.4 277.053 631.543 276.956 631.697 276.879L638.864 273.292C639.54 272.954 640.35 273.025 640.955 273.478L650.024 280.246C650.37 280.504 650.79 280.643 651.221 280.643H658.282C658.617 280.643 658.947 280.559 659.241 280.398L664.592 277.476C665.146 277.174 665.811 277.15 666.385 277.414L693.456 289.835C694.167 290.161 694.622 290.871 694.622 291.652V302.308C694.622 302.838 694.833 303.347 695.207 303.722L706.161 314.686M532.478 675.79L545.522 660.359C545.73 660.113 545.994 659.921 546.292 659.799L557.957 655.022C558.708 654.714 559.199 653.983 559.199 653.171V636.059C559.199 635.43 559.495 634.838 559.998 634.46L569.934 627C570.74 626.395 570.97 625.285 570.47 624.409L559.199 604.664M532.478 675.79L557.469 679.202C558.46 679.337 559.199 680.183 559.199 681.183V683.517C559.199 684.622 560.094 685.517 561.199 685.517H574.307C574.749 685.517 575.178 685.371 575.527 685.102L580.958 680.92C581.955 680.152 583.405 680.485 583.968 681.611L585.366 684.411C585.705 685.089 586.398 685.517 587.156 685.517H603.959C605.064 685.517 605.959 686.413 605.959 687.517V695.374C605.959 696.351 606.666 697.185 607.63 697.346L630.984 701.243C631.3 701.295 631.599 701.424 631.855 701.616L640.648 708.217C640.994 708.477 641.416 708.618 641.849 708.618H651.76C651.993 708.618 652.225 708.577 652.444 708.497L671.999 701.379C672.101 701.342 672.201 701.296 672.296 701.242L689.145 691.755C690.341 691.081 690.519 689.431 689.493 688.518L687.653 686.881C686.813 686.133 686.754 684.84 687.523 684.02L694.637 676.423C695.015 676.02 695.544 675.79 696.097 675.79H702.897C703.758 675.79 704.522 675.239 704.794 674.422L707.527 666.216C707.799 665.399 708.563 664.848 709.425 664.848H717.417C718.304 664.848 719.085 664.263 719.336 663.412L721.708 655.337C721.863 654.811 722.226 654.372 722.714 654.121L744.085 643.15C744.973 642.694 745.389 641.653 745.059 640.711L741.705 631.119C741.502 630.537 741.578 629.893 741.912 629.375L752.835 612.427C753.258 611.771 753.26 610.929 752.842 610.271L750.246 606.187C749.696 605.322 748.58 605.013 747.663 605.472L736.569 611.025C736.148 611.235 735.666 611.291 735.209 611.181L709.135 604.94C708.424 604.77 707.863 604.225 707.671 603.52L704.386 591.462C704.355 591.347 704.313 591.236 704.262 591.128L698.657 579.345C698.409 578.823 698.398 578.219 698.628 577.689L703.816 565.744C704.134 565.014 704.854 564.541 705.651 564.541H705.983C707.087 564.541 707.983 563.646 707.983 562.541V552.052C707.983 551.166 707.4 550.386 706.551 550.134L692.443 545.95C691.898 545.788 691.447 545.402 691.204 544.888L686.269 534.458C686.171 534.251 686.038 534.062 685.876 533.9L680.048 528.066M559.199 604.664L562.499 600.889C563.066 600.239 563.986 600.027 564.781 600.362L574.156 604.313C574.685 604.536 575.284 604.521 575.801 604.272L588.516 598.143C589.844 597.503 591.385 598.471 591.385 599.945V603.381C591.385 604.163 591.84 604.873 592.551 605.199L605.519 611.149C605.808 611.282 606.062 611.482 606.258 611.732L610.401 617.01C611.373 618.248 613.329 617.93 613.858 616.447L615.202 612.679C615.486 611.883 616.24 611.351 617.086 611.351H622.178C623.282 611.351 624.178 610.456 624.178 609.351V600.972C624.178 600.249 623.787 599.581 623.156 599.228L610.018 591.863C609.387 591.509 608.996 590.842 608.996 590.118V582.818C608.996 581.118 610.982 580.193 612.283 581.287L618.281 586.331C619.86 587.659 622.171 586.017 621.438 584.089L619.45 578.867C619.364 578.64 619.319 578.399 619.319 578.156V572.26C619.319 571.306 619.992 570.486 620.927 570.299L630.852 568.311C631.251 568.231 631.617 568.032 631.899 567.739L647.879 551.171C648.256 550.78 648.776 550.559 649.319 550.559H660.436C661.541 550.559 662.436 549.664 662.436 548.559V538.681C662.436 537.794 661.852 537.013 661.001 536.762L655.524 535.15C654.028 534.709 653.589 532.802 654.743 531.752L658.22 528.587C658.589 528.252 659.069 528.066 659.567 528.066H665.473H680.048M680.048 528.066L698.128 520.223C698.22 520.183 698.309 520.136 698.393 520.083L707.535 514.364C707.828 514.18 708.069 513.924 708.234 513.62L715.221 500.707C715.616 499.977 715.518 499.078 714.976 498.449L704.825 486.683C704.511 486.319 704.339 485.856 704.339 485.376V480.642C704.339 479.898 703.926 479.216 703.268 478.871L692.657 473.307C691.999 472.962 691.586 472.279 691.586 471.536V466.833C691.586 466.335 691.772 465.854 692.108 465.486L703.112 453.421C703.808 452.659 703.809 451.492 703.115 450.729L686.968 432.948C686.45 432.378 686.306 431.561 686.598 430.847L691.111 419.802C691.402 419.092 691.26 418.278 690.747 417.708L686.716 413.224C686.337 412.802 685.796 412.561 685.229 412.561H671.293C670.685 412.561 670.11 412.838 669.731 413.313L666.073 417.889C665.694 418.364 665.119 418.641 664.511 418.641H659.303C658.968 418.641 658.639 418.725 658.345 418.885L654.717 420.866C653.472 421.546 653.311 423.27 654.409 424.168L657.133 426.4C658.03 427.135 658.116 428.476 657.321 429.32L649.061 438.074C648.683 438.475 648.157 438.702 647.606 438.702H639.376C637.681 438.702 636.754 436.725 637.839 435.422L644.052 427.959C644.162 427.826 644.255 427.68 644.328 427.524L647.647 420.403C648.105 419.422 647.698 418.255 646.73 417.77L641.182 414.993M641.182 414.993L642.905 402.339C642.969 401.874 643.194 401.446 643.541 401.13L662.39 383.976C662.806 383.597 663.044 383.06 663.044 382.497V367.785C663.044 367.261 663.25 366.758 663.617 366.384L696.792 332.611C697.787 331.599 697.44 329.901 696.127 329.36L690.242 326.934C689.284 326.54 688.786 325.478 689.095 324.489L691.202 317.739C691.436 316.99 692.085 316.448 692.863 316.35L706.161 314.686M772.962 656.337L774.482 642.642C774.631 641.296 776.046 640.485 777.283 641.035L779.062 641.827C779.784 642.148 780.249 642.864 780.249 643.654V658.004C780.249 658.108 780.241 658.213 780.225 658.316L778.561 668.862C778.476 669.404 778.616 669.958 778.951 670.393L784.086 677.075C784.354 677.425 784.5 677.853 784.5 678.294V692.204V721.849C784.5 722.333 784.324 722.801 784.006 723.166L772.334 736.518C771.961 736.946 771.786 737.512 771.855 738.076L774.697 761.402C774.753 761.863 774.647 762.329 774.397 762.72L761.406 783.076C761.038 783.652 760.403 784 759.72 784H757.35C756.246 784 755.35 783.105 755.35 782V779.267C755.35 778.453 754.858 777.72 754.104 777.414L736.525 770.265C736.13 770.104 735.797 769.822 735.574 769.46L732.25 764.052C731.618 763.025 732.033 761.676 733.132 761.181L739.157 758.467C740.728 757.759 740.728 755.528 739.157 754.82L731.059 751.172L727.841 749.239C726.547 748.462 726.547 746.587 727.841 745.81L733.367 742.491C733.833 742.211 734.165 741.755 734.286 741.226L735.246 737.065C735.566 735.677 734.373 734.408 732.968 734.643L725.445 735.898C725.143 735.948 724.834 735.929 724.541 735.841L722.213 735.141C720.742 734.7 720.297 732.835 721.41 731.777L729.045 724.515C730.036 723.574 729.811 721.939 728.604 721.299L721.627 717.602C721.066 717.304 720.68 716.758 720.586 716.131L719.148 706.535C719.011 705.618 719.522 704.727 720.383 704.382L724.284 702.82C725.818 702.206 725.987 700.1 724.57 699.249L721.377 697.331C720.183 696.614 720.069 694.926 721.156 694.056L727.273 689.157C727.747 688.778 728.023 688.203 728.023 687.596V677.026C728.023 676.269 728.45 675.576 729.128 675.237L757.492 661.04C758.055 660.758 758.719 660.758 759.282 661.04L770.066 666.438C771.396 667.104 772.962 666.137 772.962 664.65V656.337Z" stroke="white" stroke-width="2" stroke-linejoin="round"/>
</svg>
