<svg width="33" height="33" viewBox="0 0 33 33" fill="none" xmlns="http://www.w3.org/2000/svg">
<path d="M29.0749 32.2499L19.4937 22.6687L23.1687 18.9937L32.7499 28.5749L29.0749 32.2499ZM4.92491 32.2499L1.24991 28.5749L13.3249 16.4999L10.3499 13.5249L9.12491 14.7499L6.89366 12.5187V16.1062L5.66866 17.3312L0.374908 12.0374L1.59991 10.8124H5.18741L2.99991 8.62494L9.21241 2.41244C9.79574 1.82911 10.4228 1.40619 11.0937 1.14369C11.7645 0.881192 12.4499 0.749942 13.1499 0.749942C13.8499 0.749942 14.5353 0.881192 15.2062 1.14369C15.877 1.40619 16.5041 1.82911 17.0874 2.41244L13.0624 6.43744L15.2499 8.62494L14.0249 9.84994L16.9999 12.8249L20.9374 8.88744C20.8207 8.56661 20.7262 8.23119 20.6539 7.88119C20.5804 7.53119 20.5437 7.18119 20.5437 6.83119C20.5437 5.11036 21.1346 3.65903 22.3164 2.47719C23.4971 1.29653 24.9478 0.706192 26.6687 0.706192C27.1062 0.706192 27.5221 0.749942 27.9164 0.837442C28.3096 0.924942 28.7103 1.05619 29.1187 1.23119L24.7874 5.56244L27.9374 8.71244L32.2687 4.38119C32.4728 4.78953 32.6117 5.19028 32.6852 5.58344C32.7575 5.97778 32.7937 6.39369 32.7937 6.83119C32.7937 8.55203 32.2033 10.0028 31.0227 11.1834C29.8408 12.3653 28.3895 12.9562 26.6687 12.9562C26.3187 12.9562 25.9687 12.927 25.6187 12.8687C25.2687 12.8104 24.9332 12.7083 24.6124 12.5624L4.92491 32.2499Z" fill="#FFA755"/>
</svg>
