<svg width="33" height="33" viewBox="0 0 33 33" fill="none" xmlns="http://www.w3.org/2000/svg">
<path d="M29.075 32.2499L19.4937 22.6687L23.1687 18.9937L32.75 28.5749L29.075 32.2499ZM4.925 32.2499L1.25 28.5749L13.325 16.4999L10.35 13.5249L9.125 14.7499L6.89375 12.5187V16.1062L5.66875 17.3312L0.375 12.0374L1.6 10.8124H5.1875L3 8.62493L9.2125 2.41243C9.79583 1.82909 10.4229 1.40618 11.0937 1.14368C11.7646 0.881177 12.45 0.749927 13.15 0.749927C13.85 0.749927 14.5354 0.881177 15.2062 1.14368C15.8771 1.40618 16.5042 1.82909 17.0875 2.41243L13.0625 6.43743L15.25 8.62493L14.025 9.84993L17 12.8249L20.9375 8.88743C20.8208 8.56659 20.7263 8.23118 20.654 7.88118C20.5805 7.53118 20.5437 7.18118 20.5437 6.83118C20.5437 5.11034 21.1347 3.65901 22.3165 2.47718C23.4972 1.29651 24.9479 0.706177 26.6687 0.706177C27.1062 0.706177 27.5222 0.749927 27.9165 0.837427C28.3097 0.924927 28.7104 1.05618 29.1187 1.23118L24.7875 5.56243L27.9375 8.71243L32.2687 4.38118C32.4729 4.78951 32.6117 5.19026 32.6852 5.58343C32.7576 5.97776 32.7937 6.39368 32.7937 6.83118C32.7937 8.55201 32.2034 10.0028 31.0227 11.1834C29.8409 12.3653 28.3896 12.9562 26.6687 12.9562C26.3187 12.9562 25.9687 12.927 25.6187 12.8687C25.2687 12.8103 24.9333 12.7083 24.6125 12.5624L4.925 32.2499Z" fill="#FC1C1C"/>
</svg>
