<svg width="58" height="190" viewBox="0 0 58 190" fill="none" xmlns="http://www.w3.org/2000/svg">
<path d="M6.91776 1.08972C5.34576 5.44251 2.87003 9.20419 1.575 13.3979C-1.14065 22.192 7.13174 30.0854 2.29101 39.2066C-0.468811 44.4068 20.872 50.3377 23.3952 53.4983C26.3537 57.2041 25.6331 62.2122 22.7754 65.8787C20.4397 68.8754 25.9802 76.1398 27.1469 79.7823C30.5149 90.2972 41.5741 91.3737 41.562 103.311C41.5582 107.098 41.554 111.225 41.5503 114.849C41.5464 118.639 49.8243 121.62 52.4711 124.272C60.4377 132.255 53.6116 148.748 55.5056 159.225C56.2104 163.124 55.1363 171.424 54.2071 175.586C53.7353 177.699 51.0177 179.291 50.6255 181.048C50.0497 183.626 50.0169 186.406 48.1551 188.636" stroke="#49A6FD" stroke-width="1.99822" stroke-linecap="round"/>
</svg>
