<svg width="205" height="284" viewBox="0 0 205 284" fill="none" xmlns="http://www.w3.org/2000/svg">
<path d="M203.986 1.62631C202.565 3.22123 199.184 3.62987 196.899 3.91316C191.104 4.63156 186.413 6.49124 181.274 8.85648C175.512 11.5089 172.592 17.3566 167.532 20.279C162.578 23.1403 157.041 24.654 151.436 24.6483C147.153 24.644 144.098 18.6704 140.479 17.3503C138.28 16.548 133.292 14.0992 132.388 11.6069C131.43 8.96279 131.594 7.39454 128.683 5.93556C123.875 3.52545 119.867 2.74425 114.583 4.43687C107.14 6.82087 106.725 12.5594 100.739 16.3991C96.8926 18.8663 92.243 20.7155 89.4633 24.2818C83.6165 31.7834 74.5492 41.6926 77.4926 52.0343C78.8701 56.8739 77.4025 63.3357 76.3632 67.9902C74.9999 74.0955 71.4667 73.9933 66.976 76.4822C63.1852 78.5831 54.2857 68.1069 51.9744 65.7052C51.1726 64.8719 40.8239 51.9627 39.9711 59.1482C38.3276 72.997 19.977 55.1078 17.5273 68.504C16.6471 73.3173 14.4519 80.6597 16.7344 85.2362C18.9046 89.5877 19.1114 89.4538 16.5567 94.0411C14.1052 98.4434 12.6014 102.169 12.5959 107.565C12.5894 114.034 14.9076 118.643 15.6148 124.706C15.8319 126.568 18.4477 127.954 19.1182 129.703C20.1688 132.442 19.7572 134.646 19.2792 137.26C18.2437 142.922 11.3419 146.548 11.336 152.298C11.33 158.232 12.9765 162.619 13.1414 168.425C13.3417 175.478 11.718 178.116 9.34649 184.682C8.48922 187.056 6.87749 189.636 5.2238 191.493C3.19109 193.775 5.8267 195.782 5.82458 197.869C5.82284 199.579 7.45794 200.946 8.114 202.426C9.05193 204.542 7.6615 207.218 8.27562 209.376C8.70121 210.871 11.4592 211.398 12.1518 212.787C12.9329 214.353 9.8006 217.442 10.7964 218.689C12.9579 221.397 22.0324 222.695 13.6894 226.856C9.24157 229.075 6.68144 232.897 3.69352 236.731C-0.174953 241.694 0.881958 247.446 2.73286 252.552C4.24184 256.715 14.352 262.123 13.0434 264.977C11.7676 267.761 15.6016 283.123 16.669 282.591" stroke="#49A6FD" stroke-width="1.99822" stroke-linecap="round"/>
</svg>
