<svg width="113" height="42" viewBox="0 0 113 42" fill="none" xmlns="http://www.w3.org/2000/svg">
<path d="M1.16497 7.70088C1.97554 5.96854 0.545996 8.83669 1.50021 9.79284C3.53813 11.8349 6.50634 13.7743 8.98409 15.1982C12.805 17.394 19.6683 16.1981 22.2727 18.5178C27.4229 23.1052 23.5858 33.5269 30.5886 35.0905C38.5827 36.8755 42.562 31.506 49.1062 38.4492C52.9655 42.5438 62.2832 40.3909 66.414 37.1848C71.0765 33.5659 80.084 30.3104 80.0911 23.2657C80.0932 21.1904 79.7699 16.5054 77.9741 15.0658C77.4621 14.6553 76.5379 12.1315 76.4597 11.4208C76.2556 9.56694 72.9897 9.15704 73.5626 7.30204C74.8732 3.05781 89.0441 1.71759 93.1688 1.72178C96.7862 1.72545 94.8898 7.32988 96.8383 9.28234C101.495 13.9484 103.869 13.8776 111.07 13.8849" stroke="#49A6FD" stroke-width="1.99822" stroke-linecap="round"/>
</svg>
