<svg width="43" height="152" viewBox="0 0 43 152" fill="none" xmlns="http://www.w3.org/2000/svg">
<path d="M41.5778 1.026C36.9082 4.17959 36.2342 10.2831 35.6964 12.2203C33.4155 20.4377 31.2749 29.6599 27.4394 37.3115C24.3317 43.5111 21.4189 50.7277 17.6364 56.5984C14.2827 61.8038 15.7092 68.4419 13.4353 74.2718C12.2113 77.4097 12.27 80.546 11.5702 83.7497C10.7456 87.5243 7.88421 89.7963 5.65718 92.8186C0.933788 99.2288 0.493651 107.462 1.8223 115.215C2.71882 120.447 1.45737 125.964 2.85168 131.41C4.2128 136.725 11.5138 144.256 16.6689 145.694C20.3926 146.732 27.0007 151.468 30.0237 150.262" stroke="#49A6FD" stroke-width="1.99822" stroke-linecap="round"/>
</svg>
