<svg width="360" height="271" viewBox="0 0 360 271" fill="none" xmlns="http://www.w3.org/2000/svg">
<path d="M1.2763 52.2362C7.16544 54.8608 14.293 50.1207 20.9771 53.1671C23.6604 54.3901 27.3322 52.8287 28.7391 50.4423C30.0962 48.1407 40.0389 43.1669 42.8818 43.1698C47.125 43.1741 53.0361 42.0184 57.1527 42.6107C59.7703 42.9874 62.4317 43.9344 65.0457 43.7995C67.4282 43.6765 69.5583 40.3831 71.7298 39.4206C77.9262 36.6742 77.4631 36.489 83.8745 39.7028C88.5917 42.0674 95.0355 44.3493 98.1697 48.3874C101.707 52.9451 110.347 50.7612 114.833 50.5297C120.333 50.2458 124.55 45.0744 129.716 45.0796C135.474 45.0854 141.341 43.8769 147.294 43.8829C152.343 43.8881 157.431 47.2217 162.34 43.8982C168.617 39.6478 178.327 35.1623 182.394 28.7374C184.784 24.9627 187.695 22.9099 191.376 20.5487C194.7 18.4169 198.557 18.3268 201.704 16.3085C207.481 12.603 207.922 5.08855 214.774 2.05145C220.636 -0.546785 225.086 3.27641 231.472 3.28289C238.593 3.29012 242.307 -0.448982 248.81 6.06682C252.135 9.3991 254.153 12.0133 258.923 13.499C261.242 14.2213 264.584 17.0367 266.678 17.2853C275.934 18.3837 270.278 29.248 271.654 34.4281C272.577 37.9047 275.21 40.4411 275.726 44.0807C276.316 48.2417 276.92 52.436 277.535 56.4636C278.342 61.7428 280.278 70.7327 285.75 73.1712C290.765 75.4061 296.456 76.5915 301.229 79.1245C306.317 81.8251 314.091 85.1917 318.221 89.3299C322.56 93.6772 324.096 102.418 326.13 107.859C327.349 111.12 332.545 114.764 334.723 117.82C336.785 120.713 340.438 123.707 342.001 126.666C344.474 131.349 340.919 135.299 343.371 139.723C345.446 143.468 352.775 147.08 352.771 151.27C352.766 155.96 351.791 161.811 350.462 166.28C348.118 174.163 353.74 180.249 356.851 186.798C358.071 189.368 356.37 195.389 356.367 198.336C356.363 202.354 358.789 204.963 358.785 208.931C358.777 216.46 358.492 220.583 354.82 227.178C353.965 228.712 354.526 231.502 352.689 232.472C350.317 233.725 347.625 233.498 347.826 237.191C347.982 240.055 346.39 241.872 346.03 245.083C345.643 248.531 346.597 251.87 346.593 255.137C346.591 257.657 344.783 261.078 345.505 263.435C345.941 264.856 350.517 269.69 350.222 269.984" stroke="#49A6FD" stroke-width="1.99822" stroke-linecap="round"/>
</svg>
