<svg width="257" height="176" viewBox="0 0 257 176" fill="none" xmlns="http://www.w3.org/2000/svg">
<path d="M1.84881 3.19233C13.3406 1.24573 21.7337 0.526816 29.1175 3.22031C33.8136 4.93338 38.0043 7.16323 41.7949 10.4189C45.0024 13.1739 44.6806 16.192 49.6823 17.1066C55.2869 18.1315 60.6721 25.0599 60.6672 29.9037C60.6621 34.8786 61.6836 35.8131 66.3941 37.9386C68.1685 38.7393 74.3151 41.0098 73.5406 43.4111C69.4199 56.1864 87.2597 45.2867 92.499 44.5436C98.7404 43.6584 107.472 50.1417 108.849 56.3678C109.659 60.0319 110.667 65.3368 112.817 68.4492C114.744 71.2375 119.005 70.9509 120.672 74.2935C122.324 77.6053 125.393 78.7537 127.952 81.3179C130.658 84.0296 132.533 87.4899 134.993 90.3663C136.292 91.885 142.605 92.1361 144.673 92.6702C149.952 94.0332 153.425 93.202 158.371 92.0768C166.017 90.3374 175.413 90.6012 182.732 87.7159C187.948 85.6602 201.455 82.3382 206.01 88.0431C209.724 92.6961 209.623 100.007 216.622 102.594C224.504 105.507 228.734 110.841 232.429 117.859C235.477 123.649 245.377 133.062 241.177 140.133C239.276 143.334 240.554 147.005 243.124 149.581C244.624 151.084 246.938 151.512 248.316 152.893C249.843 154.422 249.684 156.471 250.875 157.888C254.641 162.369 246.134 174.009 255.11 174.018" stroke="#49A6FD" stroke-width="1.99822" stroke-linecap="round"/>
</svg>
