<svg width="209" height="280" viewBox="0 0 209 280" fill="none" xmlns="http://www.w3.org/2000/svg">
<path d="M205.976 1.9078C210.454 1.41491 200.171 9.66619 199.591 10.7064C198.146 13.3025 197.826 14.7362 198.944 17.3517C200.013 19.8549 191.97 19.9891 191.114 20.1438C184.676 21.3077 184.345 27.6016 182.127 32.8531C181.551 34.2174 182.071 39.4008 179.827 39.5305C176.605 39.7167 174.801 43.8692 172.399 45.5954C169.497 47.6802 169.938 52.9513 167.937 54.0924C164.796 55.8829 159.893 56.4633 156.464 57.0832C147.576 58.6897 144.328 67.9358 142.141 75.0162C139.95 82.1115 129.399 81.206 123.917 82.4533C120.439 83.2443 116.414 82.4381 112.851 82.577C110.024 82.6872 108.328 87.2841 105.694 87.4277C98.8516 87.8009 93.1574 84.986 86.231 84.979C79.8783 84.9725 73.6894 86.4327 67.4395 85.5334C63.5524 84.9741 61.7825 83.5262 57.7254 83.7356C54.6532 83.8941 52.677 83.2813 49.8318 83.1203C44.2187 82.8028 38.3071 89.333 32.8253 86.7465C29.8674 85.3509 27.7291 84.4843 25.239 82.4881C23.6073 81.18 19.032 81.4818 16.7731 80.6578C11.6225 78.7789 6.37529 69.1436 2.16953 76.6959C-0.165752 80.8894 3.43669 89.7244 3.67008 94.0039C3.95562 99.2395 12.3568 102.514 16.4136 102.518C23.4237 102.525 25.6556 101.92 28.2555 101.923C34.918 101.93 31.6771 110.266 36.1392 112.254C37.6744 112.938 42.2554 112.482 42.5128 114.69C42.8137 117.269 41.9399 120.853 42.9765 123.192C45.984 129.977 44.6759 132.943 53.0854 134.874C58.6306 136.148 65.3611 136.369 69.5091 140.525C72.4366 143.459 81.3756 144.13 82.5906 148.399C84.1411 153.847 90.085 157.403 95.9096 154.957C103.127 151.927 98.0586 165.3 99.068 167.577C102.562 175.46 113.847 189.915 104.335 197.034C98.9606 201.056 96.9748 208.451 94.0276 214.33C90.6455 221.077 82.289 223.54 79.3034 229.497C77.8491 232.398 74.6744 229.287 72.1824 232.188C70.1492 234.555 63.4988 233.003 60.6091 234.032C57.7411 235.053 54.7208 233.806 56.354 238.312C57.4154 241.24 59.3377 243.395 61.5083 245.57C65.922 249.993 71.4528 251.861 69.5564 260.119C68.5361 264.562 71.9994 267.295 75.0113 270.313C77.1074 272.413 77.4095 273.893 80.8773 274.299C84.4807 274.722 88.8598 274.412 89.7116 278.694" stroke="#49A6FD" stroke-width="1.99822" stroke-linecap="round"/>
</svg>
