<svg width="28" height="27" viewBox="0 0 28 27" fill="none" xmlns="http://www.w3.org/2000/svg">
<path d="M0.667969 26.8337L3.33464 13.5003H24.668L27.3346 26.8337H0.667969ZM2.0013 2.83366V0.166992H6.0013V2.83366H2.0013ZM3.93464 24.167H12.668V21.5003H4.46797L3.93464 24.167ZM6.16797 9.93366L4.26797 8.06699L7.1013 5.23366L9.0013 7.10033L6.16797 9.93366ZM5.0013 18.8337H12.668V16.167H5.53464L5.0013 18.8337ZM14.0013 6.83366C12.1569 6.83366 10.5849 6.18344 9.2853 4.88299C7.98486 3.58344 7.33464 2.01144 7.33464 0.166992H10.0013C10.0013 1.2781 10.3902 2.22255 11.168 3.00033C11.9457 3.7781 12.8902 4.16699 14.0013 4.16699C15.1124 4.16699 16.0569 3.7781 16.8346 3.00033C17.6124 2.22255 18.0013 1.2781 18.0013 0.166992H20.668C20.668 2.01144 20.0182 3.58344 18.7186 4.88299C17.4182 6.18344 15.8457 6.83366 14.0013 6.83366ZM12.668 12.167V8.16699H15.3346V12.167H12.668ZM15.3346 24.167H24.068L23.5346 21.5003H15.3346V24.167ZM15.3346 18.8337H23.0013L22.468 16.167H15.3346V18.8337ZM21.8346 9.93366L19.0346 7.10033L20.9013 5.23366L23.7346 8.03366L21.8346 9.93366ZM22.0013 2.83366V0.166992H26.0013V2.83366H22.0013Z" fill="#1C1B1F"/>
</svg>
