<svg width="17" height="17" viewBox="0 0 17 17" fill="none" xmlns="http://www.w3.org/2000/svg">
<path d="M2.4 14.6001C1.65 13.8501 1.0625 12.9835 0.6375 12.0001C0.2125 11.0168 0 10.0001 0 8.95012C0 7.90012 0.2 6.86262 0.6 5.83762C1 4.81262 1.65 3.85012 2.55 2.95012C3.13333 2.36679 3.85417 1.86679 4.7125 1.45012C5.57083 1.03345 6.5875 0.704287 7.7625 0.46262C8.9375 0.220954 10.2792 0.0751202 11.7875 0.0251202C13.2958 -0.0248798 14.9833 0.0334535 16.85 0.20012C16.9833 1.96679 17.025 3.59179 16.975 5.07512C16.925 6.55845 16.7875 7.89595 16.5625 9.08762C16.3375 10.2793 16.0208 11.321 15.6125 12.2126C15.2042 13.1043 14.7 13.8501 14.1 14.4501C13.2167 15.3335 12.2792 15.9793 11.2875 16.3876C10.2958 16.796 9.28333 17.0001 8.25 17.0001C7.16667 17.0001 6.10833 16.7876 5.075 16.3626C4.04167 15.9376 3.15 15.3501 2.4 14.6001ZM5.2 14.2001C5.68333 14.4835 6.17917 14.6876 6.6875 14.8126C7.19583 14.9376 7.71667 15.0001 8.25 15.0001C9.01667 15.0001 9.775 14.846 10.525 14.5376C11.275 14.2293 11.9917 13.7335 12.675 13.0501C12.975 12.7501 13.2792 12.3293 13.5875 11.7876C13.8958 11.246 14.1625 10.5376 14.3875 9.66262C14.6125 8.78762 14.7833 7.72929 14.9 6.48762C15.0167 5.24595 15.0333 3.76679 14.95 2.05012C14.1333 2.01679 13.2125 2.00429 12.1875 2.01262C11.1625 2.02095 10.1417 2.10012 9.125 2.25012C8.10833 2.40012 7.14167 2.64179 6.225 2.97512C5.30833 3.30845 4.55833 3.76679 3.975 4.35012C3.225 5.10012 2.70833 5.84179 2.425 6.57512C2.14167 7.30845 2 8.01679 2 8.70012C2 9.68345 2.1875 10.546 2.5625 11.2876C2.9375 12.0293 3.26667 12.5501 3.55 12.8501C4.25 11.5168 5.175 10.2376 6.325 9.01262C7.475 7.78762 8.81667 6.78345 10.35 6.00012C9.15 7.05012 8.10417 8.23762 7.2125 9.56262C6.32083 10.8876 5.65 12.4335 5.2 14.2001Z" fill="#1C1B1F"/>
</svg>
