<svg width="32" height="33" viewBox="0 0 32 33" fill="none" xmlns="http://www.w3.org/2000/svg">
<mask id="mask0_1203_42903" style="mask-type:alpha" maskUnits="userSpaceOnUse" x="0" y="0" width="32" height="33">
<rect y="0.5" width="32" height="32" fill="#D9D9D9"/>
</mask>
<g mask="url(#mask0_1203_42903)">
<path d="M10.6654 29.8337C9.1987 29.8337 7.94314 29.3114 6.8987 28.267C5.85425 27.2225 5.33203 25.967 5.33203 24.5003V13.8337C5.33203 12.567 5.70981 11.467 6.46536 10.5337C7.22092 9.60033 8.17648 8.9781 9.33203 8.66699V5.83366C9.33203 5.10033 9.59336 4.47233 10.116 3.94966C10.6378 3.42788 11.2654 3.16699 11.9987 3.16699H19.9987C20.732 3.16699 21.36 3.42788 21.8827 3.94966C22.4045 4.47233 22.6654 5.10033 22.6654 5.83366V8.66699C23.8209 8.9781 24.7765 9.60033 25.532 10.5337C26.2876 11.467 26.6654 12.567 26.6654 13.8337V24.5003C26.6654 25.967 26.1431 27.2225 25.0987 28.267C24.0543 29.3114 22.7987 29.8337 21.332 29.8337H10.6654ZM7.9987 17.8337H23.9987V13.8337C23.9987 13.1003 23.7378 12.4723 23.216 11.9497C22.6934 11.4279 22.0654 11.167 21.332 11.167H10.6654C9.93203 11.167 9.30448 11.4279 8.7827 11.9497C8.26003 12.4723 7.9987 13.1003 7.9987 13.8337V17.8337ZM10.6654 27.167H21.332C22.0654 27.167 22.6934 26.9061 23.216 26.3843C23.7378 25.8617 23.9987 25.2337 23.9987 24.5003V20.5003H7.9987V24.5003C7.9987 25.2337 8.26003 25.8617 8.7827 26.3843C9.30448 26.9061 9.93203 27.167 10.6654 27.167ZM17.332 8.50033H19.9987V5.83366H11.9987V8.50033H14.6654C14.6654 8.12255 14.7934 7.80566 15.0494 7.54966C15.3045 7.29455 15.6209 7.16699 15.9987 7.16699C16.3765 7.16699 16.6934 7.29455 16.9494 7.54966C17.2045 7.80566 17.332 8.12255 17.332 8.50033Z" fill="#1C1B1F"/>
</g>
</svg>
