<svg width="29" height="30" viewBox="0 0 29 30" fill="none" xmlns="http://www.w3.org/2000/svg">
<path d="M12.332 29.6668C12.332 28.9335 12.5934 28.3055 13.116 27.7828C13.6378 27.2611 14.2654 27.0002 14.9987 27.0002V20.0668C14.732 19.9557 14.4823 19.8277 14.2494 19.6828C14.0156 19.5388 13.7987 19.3779 13.5987 19.2002L10.6654 21.0668C10.3543 21.2446 10.0156 21.3611 9.64937 21.4162C9.28225 21.4722 8.90981 21.4446 8.53203 21.3335L2.53203 19.6335C1.88759 19.4557 1.35959 19.0944 0.948031 18.5495C0.537365 18.0055 0.332031 17.3891 0.332031 16.7002C0.332031 15.8557 0.626698 15.1388 1.21603 14.5495C1.80448 13.9611 2.52092 13.6668 3.36537 13.6668H13.3987C13.6209 13.4224 13.8654 13.2113 14.132 13.0335C14.3987 12.8557 14.6876 12.7113 14.9987 12.6002V8.0335C14.9987 7.65572 15.0711 7.30016 15.216 6.96683C15.36 6.6335 15.5654 6.34461 15.832 6.10016L20.3987 1.8335C20.9098 1.34461 21.5045 1.06683 22.1827 1.00016C22.86 0.933498 23.4876 1.07794 24.0654 1.4335C24.7765 1.87794 25.2378 2.5055 25.4494 3.31616C25.66 4.12772 25.5431 4.88905 25.0987 5.60016L19.7987 14.3668C19.9543 14.6335 20.0711 14.9224 20.1494 15.2335C20.2267 15.5446 20.2765 15.8668 20.2987 16.2002L23.8987 17.0668C24.2543 17.1557 24.5765 17.3113 24.8654 17.5335C25.1543 17.7557 25.3876 18.0224 25.5654 18.3335L28.5987 23.8002C28.932 24.4002 29.0543 25.0335 28.9654 25.7002C28.8765 26.3668 28.5876 26.9446 28.0987 27.4335C27.4987 28.0335 26.7823 28.3335 25.9494 28.3335C25.1156 28.3335 24.3987 28.0335 23.7987 27.4335L17.6654 21.3002V27.0002C18.3987 27.0002 19.0267 27.2611 19.5494 27.7828C20.0711 28.3055 20.332 28.9335 20.332 29.6668H12.332ZM4.33203 5.66683V3.00016H12.332V5.66683H4.33203ZM17.6654 8.0335V12.6002C17.6876 12.6002 17.7045 12.6055 17.716 12.6162C17.7267 12.6277 17.7431 12.6335 17.7654 12.6335L22.832 4.20016C22.8765 4.11128 22.8876 4.01661 22.8654 3.91616C22.8431 3.81661 22.7876 3.74461 22.6987 3.70016C22.632 3.65572 22.5485 3.64461 22.448 3.66683C22.3485 3.68905 22.2765 3.72239 22.232 3.76683L17.6654 8.0335ZM0.332031 11.0002V8.3335H6.9987V11.0002H0.332031ZM16.332 17.6668C16.7098 17.6668 17.0267 17.5388 17.2827 17.2828C17.5378 17.0277 17.6654 16.7113 17.6654 16.3335C17.6654 15.9557 17.5378 15.6388 17.2827 15.3828C17.0267 15.1277 16.7098 15.0002 16.332 15.0002C15.9543 15.0002 15.6378 15.1277 15.3827 15.3828C15.1267 15.6388 14.9987 15.9557 14.9987 16.3335C14.9987 16.7113 15.1267 17.0277 15.3827 17.2828C15.6378 17.5388 15.9543 17.6668 16.332 17.6668ZM9.2987 18.8002L12.3987 16.9335C12.3765 16.8224 12.3654 16.7224 12.3654 16.6335V16.3335H3.36537C3.25425 16.3335 3.16536 16.3668 3.0987 16.4335C3.03203 16.5002 2.9987 16.5891 2.9987 16.7002C2.9987 16.7891 3.02092 16.8668 3.06536 16.9335C3.10981 17.0002 3.17648 17.0446 3.26536 17.0668L9.2987 18.8002ZM23.2654 19.6335L19.4654 18.7668C19.4209 18.8113 19.3765 18.8668 19.332 18.9335C19.2876 19.0002 19.2431 19.0557 19.1987 19.1002L25.6987 25.5668C25.7654 25.6335 25.8543 25.6668 25.9654 25.6668C26.0765 25.6668 26.1654 25.6335 26.232 25.5668C26.2987 25.5002 26.3378 25.4282 26.3494 25.3508C26.36 25.2726 26.3431 25.1891 26.2987 25.1002L23.2654 19.6335ZM2.9987 27.0002V24.3335H9.66537V27.0002H2.9987Z" fill="#1C1B1F"/>
</svg>
