<svg width="32" height="32" viewBox="0 0 32 32" fill="none" xmlns="http://www.w3.org/2000/svg">
<mask id="mask0_1203_42937" style="mask-type:alpha" maskUnits="userSpaceOnUse" x="0" y="0" width="32" height="32">
<rect width="32" height="32" fill="#D9D9D9"/>
</mask>
<g mask="url(#mask0_1203_42937)">
<path d="M13.332 30.6668C13.332 29.9335 13.5934 29.3055 14.116 28.7828C14.6378 28.2611 15.2654 28.0002 15.9987 28.0002V21.0668C15.732 20.9557 15.4823 20.8277 15.2494 20.6828C15.0156 20.5388 14.7987 20.3779 14.5987 20.2002L11.6654 22.0668C11.3543 22.2446 11.0156 22.3611 10.6494 22.4162C10.2823 22.4722 9.90981 22.4446 9.53203 22.3335L3.53203 20.6335C2.88759 20.4557 2.35959 20.0944 1.94803 19.5495C1.53736 19.0055 1.33203 18.3891 1.33203 17.7002C1.33203 16.8557 1.6267 16.1388 2.21603 15.5495C2.80448 14.9611 3.52092 14.6668 4.36537 14.6668H14.3987C14.6209 14.4224 14.8654 14.2113 15.132 14.0335C15.3987 13.8557 15.6876 13.7113 15.9987 13.6002V9.0335C15.9987 8.65572 16.0711 8.30016 16.216 7.96683C16.36 7.6335 16.5654 7.34461 16.832 7.10016L21.3987 2.8335C21.9098 2.34461 22.5045 2.06683 23.1827 2.00016C23.86 1.9335 24.4876 2.07794 25.0654 2.4335C25.7765 2.87794 26.2378 3.5055 26.4494 4.31616C26.66 5.12772 26.5431 5.88905 26.0987 6.60016L20.7987 15.3668C20.9543 15.6335 21.0711 15.9224 21.1494 16.2335C21.2267 16.5446 21.2765 16.8668 21.2987 17.2002L24.8987 18.0668C25.2543 18.1557 25.5765 18.3113 25.8654 18.5335C26.1543 18.7557 26.3876 19.0224 26.5654 19.3335L29.5987 24.8002C29.932 25.4002 30.0543 26.0335 29.9654 26.7002C29.8765 27.3668 29.5876 27.9446 29.0987 28.4335C28.4987 29.0335 27.7823 29.3335 26.9494 29.3335C26.1156 29.3335 25.3987 29.0335 24.7987 28.4335L18.6654 22.3002V28.0002C19.3987 28.0002 20.0267 28.2611 20.5494 28.7828C21.0711 29.3055 21.332 29.9335 21.332 30.6668H13.332ZM5.33203 6.66683V4.00016H13.332V6.66683H5.33203ZM18.6654 9.0335V13.6002C18.6876 13.6002 18.7045 13.6055 18.716 13.6162C18.7267 13.6277 18.7431 13.6335 18.7654 13.6335L23.832 5.20016C23.8765 5.11128 23.8876 5.01661 23.8654 4.91616C23.8431 4.81661 23.7876 4.74461 23.6987 4.70016C23.632 4.65572 23.5485 4.64461 23.448 4.66683C23.3485 4.68905 23.2765 4.72239 23.232 4.76683L18.6654 9.0335ZM1.33203 12.0002V9.3335H7.9987V12.0002H1.33203ZM17.332 18.6668C17.7098 18.6668 18.0267 18.5388 18.2827 18.2828C18.5378 18.0277 18.6654 17.7113 18.6654 17.3335C18.6654 16.9557 18.5378 16.6388 18.2827 16.3828C18.0267 16.1277 17.7098 16.0002 17.332 16.0002C16.9543 16.0002 16.6378 16.1277 16.3827 16.3828C16.1267 16.6388 15.9987 16.9557 15.9987 17.3335C15.9987 17.7113 16.1267 18.0277 16.3827 18.2828C16.6378 18.5388 16.9543 18.6668 17.332 18.6668ZM10.2987 19.8002L13.3987 17.9335C13.3765 17.8224 13.3654 17.7224 13.3654 17.6335V17.3335H4.36537C4.25425 17.3335 4.16536 17.3668 4.0987 17.4335C4.03203 17.5002 3.9987 17.5891 3.9987 17.7002C3.9987 17.7891 4.02092 17.8668 4.06536 17.9335C4.10981 18.0002 4.17648 18.0446 4.26536 18.0668L10.2987 19.8002ZM24.2654 20.6335L20.4654 19.7668C20.4209 19.8113 20.3765 19.8668 20.332 19.9335C20.2876 20.0002 20.2431 20.0557 20.1987 20.1002L26.6987 26.5668C26.7654 26.6335 26.8543 26.6668 26.9654 26.6668C27.0765 26.6668 27.1654 26.6335 27.232 26.5668C27.2987 26.5002 27.3378 26.4282 27.3494 26.3508C27.36 26.2726 27.3431 26.1891 27.2987 26.1002L24.2654 20.6335ZM3.9987 28.0002V25.3335H10.6654V28.0002H3.9987Z" fill="#1C1B1F"/>
</g>
</svg>
