<svg width="32" height="32" viewBox="0 0 32 32" fill="none" xmlns="http://www.w3.org/2000/svg">
<mask id="mask0_1203_42920" style="mask-type:alpha" maskUnits="userSpaceOnUse" x="0" y="0" width="32" height="32">
<rect width="32" height="32" fill="#D9D9D9"/>
</mask>
<g mask="url(#mask0_1203_42920)">
<path d="M5.33333 28C4.95556 28 4.63911 27.872 4.384 27.616C4.128 27.3609 4 27.0444 4 26.6667C4 26.2889 4.128 25.9724 4.384 25.7173C4.63911 25.4613 4.95556 25.3333 5.33333 25.3333H6.66667V17.3333H5.33333C4.95556 17.3333 4.63911 17.2053 4.384 16.9493C4.128 16.6942 4 16.3778 4 16C4 15.6222 4.128 15.3053 4.384 15.0493C4.63911 14.7942 4.95556 14.6667 5.33333 14.6667H6.66667V6.66667H5.33333C4.95556 6.66667 4.63911 6.53867 4.384 6.28267C4.128 6.02756 4 5.71111 4 5.33333C4 4.95556 4.128 4.63867 4.384 4.38267C4.63911 4.12756 4.95556 4 5.33333 4H26.6667C27.0444 4 27.3609 4.12756 27.616 4.38267C27.872 4.63867 28 4.95556 28 5.33333C28 5.71111 27.872 6.02756 27.616 6.28267C27.3609 6.53867 27.0444 6.66667 26.6667 6.66667H25.3333V14.6667H26.6667C27.0444 14.6667 27.3609 14.7942 27.616 15.0493C27.872 15.3053 28 15.6222 28 16C28 16.3778 27.872 16.6942 27.616 16.9493C27.3609 17.2053 27.0444 17.3333 26.6667 17.3333H25.3333V25.3333H26.6667C27.0444 25.3333 27.3609 25.4613 27.616 25.7173C27.872 25.9724 28 26.2889 28 26.6667C28 27.0444 27.872 27.3609 27.616 27.616C27.3609 27.872 27.0444 28 26.6667 28H5.33333ZM9.33333 25.3333H22.6667V17.3333C22.2889 17.3333 21.9724 17.2053 21.7173 16.9493C21.4613 16.6942 21.3333 16.3778 21.3333 16C21.3333 15.6222 21.4613 15.3053 21.7173 15.0493C21.9724 14.7942 22.2889 14.6667 22.6667 14.6667V6.66667H9.33333V14.6667C9.71111 14.6667 10.028 14.7942 10.284 15.0493C10.5391 15.3053 10.6667 15.6222 10.6667 16C10.6667 16.3778 10.5391 16.6942 10.284 16.9493C10.028 17.2053 9.71111 17.3333 9.33333 17.3333V25.3333ZM16 21.3333C17.1111 21.3333 18.0556 20.9498 18.8333 20.1827C19.6111 19.4164 20 18.4889 20 17.4C20 16.5333 19.7502 15.7889 19.2507 15.1667C18.7502 14.5444 17.6667 13.2667 16 11.3333C14.3333 13.2444 13.2498 14.5164 12.7493 15.1493C12.2498 15.7831 12 16.5333 12 17.4C12 18.4889 12.3889 19.4164 13.1667 20.1827C13.9444 20.9498 14.8889 21.3333 16 21.3333Z" fill="#1C1B1F"/>
</g>
</svg>
