<svg width="29" height="34" viewBox="0 0 29 34" fill="none" xmlns="http://www.w3.org/2000/svg">
<path d="M7.0177 7.38397V7.38397C7.0177 11.491 6.33031 15.569 4.98403 19.4491L1.82232 28.5613C1.27182 30.1479 2.45 31.8038 4.12938 31.8038H24.127C25.8064 31.8038 26.9846 30.1479 26.434 28.5613L23.2723 19.4491C21.9261 15.569 21.2387 11.491 21.2387 7.38397V7.38397M7.0177 7.38397V2.5H21.2387V7.38397M7.0177 7.38397H21.2387" stroke="black" stroke-width="3.17458"/>
<mask id="mask0_1203_42850" style="mask-type:alpha" maskUnits="userSpaceOnUse" x="8" y="14" width="13" height="13">
<rect x="8.02344" y="14.71" width="11.981" height="11.981" fill="#D9D9D9"/>
</mask>
<g mask="url(#mask0_1203_42850)">
<path d="M11.8331 26.235C11.7666 26.1574 11.7291 26.0603 11.7208 25.9438C11.7125 25.8273 11.7375 25.7254 11.7957 25.6381L14.2168 21.7068L10.1733 21.2554C9.95694 21.236 9.81334 21.105 9.74245 20.8623C9.67189 20.6196 9.71982 20.4158 9.88622 20.2508L15.0655 14.8344C15.1404 14.747 15.2299 14.7057 15.3341 14.7103C15.4379 14.7154 15.5273 14.7616 15.6022 14.8489C15.6687 14.9266 15.7062 15.0237 15.7145 15.1401C15.7228 15.2566 15.6978 15.3585 15.6396 15.4459L13.2184 19.3772L17.262 19.8285C17.4783 19.8479 17.6218 19.979 17.6923 20.2217C17.7632 20.4643 17.7155 20.6682 17.5491 20.8332L12.3698 26.2496C12.2949 26.337 12.2055 26.3781 12.1017 26.3731C11.9975 26.3684 11.908 26.3224 11.8331 26.235Z" fill="#1C1B1F"/>
</g>
</svg>
