<svg width="32" height="33" viewBox="0 0 32 33" fill="none" xmlns="http://www.w3.org/2000/svg">
<mask id="mask0_1203_42869" style="mask-type:alpha" maskUnits="userSpaceOnUse" x="0" y="0" width="32" height="33">
<rect y="0.5" width="32" height="32" fill="#D9D9D9"/>
</mask>
<g mask="url(#mask0_1203_42869)">
<path d="M2.66797 29.8337L5.33464 16.5003H26.668L29.3346 29.8337H2.66797ZM4.0013 5.83366V3.16699H8.0013V5.83366H4.0013ZM5.93464 27.167H14.668V24.5003H6.46797L5.93464 27.167ZM8.16797 12.9337L6.26797 11.067L9.1013 8.23366L11.0013 10.1003L8.16797 12.9337ZM7.0013 21.8337H14.668V19.167H7.53464L7.0013 21.8337ZM16.0013 9.83366C14.1569 9.83366 12.5849 9.18344 11.2853 7.88299C9.98486 6.58344 9.33464 5.01144 9.33464 3.16699H12.0013C12.0013 4.2781 12.3902 5.22255 13.168 6.00033C13.9457 6.7781 14.8902 7.16699 16.0013 7.16699C17.1124 7.16699 18.0569 6.7781 18.8346 6.00033C19.6124 5.22255 20.0013 4.2781 20.0013 3.16699H22.668C22.668 5.01144 22.0182 6.58344 20.7186 7.88299C19.4182 9.18344 17.8457 9.83366 16.0013 9.83366ZM14.668 15.167V11.167H17.3346V15.167H14.668ZM17.3346 27.167H26.068L25.5346 24.5003H17.3346V27.167ZM17.3346 21.8337H25.0013L24.468 19.167H17.3346V21.8337ZM23.8346 12.9337L21.0346 10.1003L22.9013 8.23366L25.7346 11.0337L23.8346 12.9337ZM24.0013 5.83366V3.16699H28.0013V5.83366H24.0013Z" fill="#1C1B1F"/>
</g>
</svg>
